<?xml version="1.0" encoding="utf-8" ?>
<svg xmlns="http://www.w3.org/2000/svg" xmlns:xlink="http://www.w3.org/1999/xlink" width="735" height="600">
	<g>
		<path fill="#231F20" d="M325.772 196.438Q325.545 195.225 325.41 193.999C323.728 177.809 331.953 160.942 341.884 148.552Q345.156 144.458 348.657 140.558Q352.158 136.658 355.877 132.966Q359.596 129.273 363.52 125.799Q367.445 122.326 371.562 119.083C392.172 103.122 424.22 87.7801 450.336 84.9305C455.183 84.4016 463.807 83.3662 467.729 86.7872C468.672 87.6103 469.153 88.742 469.173 89.9864C469.244 94.2513 465.236 98.5667 462.436 101.375C450.695 113.156 428.853 125.894 411.872 125.82C408.784 125.806 405.069 125.045 402.838 122.776C402.506 121.774 402.476 121.206 402.648 120.169C403.445 119.401 405.024 120.135 406.098 120.344C410.545 121.21 414.651 121.234 419.031 120.018C434.833 115.632 455.874 105.061 464.207 90.2693C460.645 89.8217 456.984 89.8692 453.407 90.1374C430.241 91.8738 402.975 103.934 383.731 116.501C378.928 119.637 374.457 123.235 369.97 126.8C364.266 131.333 358.982 135.778 354.237 141.329C357.498 142.206 360.737 143.118 363.901 144.309C384.667 152.124 401.89 169.897 410.791 190.019C418.293 206.978 418.356 227.125 411.696 244.329C403.176 266.34 383.922 283.182 362.396 291.973Q356.982 294.246 351.361 295.944C348.62 296.77 345.38 297.392 342.802 298.576C342.64 298.651 342.48 298.729 342.319 298.805C352.557 303.4 362.903 309.061 372.147 315.438C371.43 308.414 370.896 301.188 369.678 294.237L374.007 292.693C375.593 304.424 377.572 316.129 379.012 327.872Q381.559 350.421 383.047 373.065C383.88 385.83 383.719 398.762 383.938 411.555C384.216 427.752 384.75 443.905 384.733 460.11C384.721 471.815 384.556 483.383 383.864 495.075C383.602 499.513 383.624 504.279 382.689 508.632C381.368 509.315 380.059 510.016 378.687 510.59C375.44 505.089 372.911 499.068 370.309 493.235Q362.031 474.203 354.31 454.939C348.536 440.917 342.383 427.025 336.747 412.95C334.614 407.621 332.793 402.169 330.72 396.816C321.029 371.801 311.829 346.172 309.032 319.315C308.502 314.224 307.872 308.716 308.412 303.612L308.77 303.184C309.824 303.174 310.505 303.203 311.467 303.654C312.496 305.562 313.256 318.105 313.67 321.298C314.662 328.939 316.876 336.816 319.023 344.223C325.068 365.08 333.658 384.971 341.487 405.183C343.91 411.436 346.526 417.688 348.623 424.056C351.572 418.413 354.64 411.049 359.77 407.07C349.064 380.537 341.273 351.263 340.637 322.53C337.866 325.287 323.179 341.92 321.92 342.595L321.373 342.474C321.166 341.669 321.287 341.312 321.696 340.583C323.082 338.116 339.67 319.323 341.529 318.427C343.378 318.454 370.708 336.575 374.331 338.959C373.813 331.7 372.818 324.461 372.436 317.199C363.747 312.876 350.173 303.824 341.732 301.065Q338.525 303.392 335.654 306.121C333.103 308.534 321.594 320.931 319.882 321.674C319.325 321.143 319.304 320.88 319.085 320.13C320.085 317.41 337.167 300.883 340.15 299.198C337.713 298.768 328.675 300.139 325.101 300.211C305.421 300.608 286.331 295.794 270.528 283.71C254.456 271.421 241.9 252.626 239.237 232.376C236.594 212.276 241.302 192.229 253.741 176.081C254.941 178.767 256.444 181.34 257.846 183.925C253.601 189.157 250.587 197.111 248.985 203.557C244.676 220.894 246.735 240.716 256.051 256.081Q256.997 257.662 258.019 259.195Q259.041 260.727 260.137 262.208Q261.234 263.688 262.402 265.112Q263.57 266.537 264.807 267.902Q266.044 269.267 267.347 270.57Q268.649 271.873 270.015 273.11Q271.38 274.347 272.804 275.515Q274.229 276.683 275.709 277.78Q277.19 278.876 278.722 279.899Q280.255 280.921 281.836 281.867Q283.417 282.812 285.043 283.679Q286.668 284.545 288.335 285.331Q290.001 286.116 291.704 286.819Q293.408 287.521 295.143 288.139Q296.879 288.756 298.643 289.288Q300.407 289.819 302.195 290.263C326.991 296.21 351.419 290.801 372.859 277.507C389.522 267.175 402.862 252.079 407.345 232.638Q407.697 231.088 407.971 229.522Q408.246 227.957 408.442 226.38Q408.639 224.802 408.758 223.217Q408.876 221.632 408.916 220.043Q408.956 218.454 408.917 216.865Q408.879 215.276 408.761 213.691Q408.644 212.106 408.449 210.529Q408.253 208.951 407.98 207.386Q407.707 205.82 407.357 204.269Q407.006 202.719 406.58 201.188Q406.153 199.657 405.652 198.148Q405.15 196.64 404.574 195.159Q403.999 193.677 403.35 192.226Q402.702 190.775 401.983 189.357Q401.264 187.94 400.475 186.56Q399.687 185.179 398.831 183.84C386.789 164.708 370.112 152.8 348.112 147.825C339.844 157.938 332.752 168.656 329.194 181.368C327.804 186.33 327.071 191.449 325.772 196.438ZM362.156 406.977C365.904 409.391 369.41 412.104 372.952 414.804C374.598 416.059 376.385 417.725 378.223 418.66C378.012 404.353 377.457 390.095 376.992 375.797C376.634 364.804 376.59 351.55 374.577 340.811C363.262 335.801 353.614 327.453 342.724 321.67C343.567 349.763 351.111 381.194 362.156 406.977ZM352.01 432.28C353.673 435.498 355.062 438.72 356.389 442.09C357.42 439.98 360.157 432.936 361.492 431.67C362.037 432.772 361.606 434.161 361.229 435.292C360.179 438.443 358.621 441.575 357.297 444.63Q360.845 451.826 363.666 459.338C365.423 455.882 367.095 452.346 368.962 448.951C372.058 451.83 375.197 454.676 378.218 457.634C378.163 452.044 378.065 446.451 378.079 440.862L374.22 437.352C373.172 436.408 372.148 435.405 371.214 434.347C370.566 433.613 369.671 432.553 369.746 431.537C369.854 431.533 369.962 431.514 370.069 431.526C371.867 431.716 374.365 434.632 375.681 435.889L378.14 437.942Q378.285 432.615 378.275 427.286C372.249 423.501 366.941 418.463 361.576 413.809C358.265 419.924 354.8 425.896 352.01 432.28ZM369.36 452.301C367.978 455.362 366.679 458.474 364.87 461.314C367.436 466.808 369.581 472.46 371.9 478.058C373.393 481.66 375.134 485.192 376.524 488.831C376.853 489.768 377.117 490.962 377.725 491.746C378.852 488.757 378.24 465.643 378.244 460.615C375.142 458.038 372.906 454.304 369.36 452.301Z"/>
		<path fill="#231F20" d="M595.166 217.612C596.736 217.391 598.466 217.468 600.059 217.426C599.735 218.009 599.369 218.541 598.878 218.998C596.091 221.589 535.613 262.48 535.445 262.534C532.191 263.589 508.392 262.975 503.405 262.985L411.517 263.031L405.795 262.975C411.474 255.052 415.348 246.63 418.016 237.285C427.988 236.038 437.997 235.196 447.992 234.158L506.838 227.797L564.954 220.938C575.007 219.769 585.073 218.385 595.166 217.612Z"/>
		<path fill="#231F20" d="M587.285 263.014C587.44 265.413 581.467 276.606 580.02 279.129C565.939 303.691 539.307 321.857 512.268 329.116C509.001 328.259 505.737 326.829 502.574 325.638Q493.187 322.081 483.847 318.4Q447.657 304.441 412.579 287.886C405.827 284.575 398.868 281.443 392.336 277.721C395.617 274.807 398.608 271.781 401.348 268.345C407.917 269.246 414.482 270.715 421.008 271.906C440.148 275.398 459.171 279.392 478.274 283.065C501.336 287.498 526.387 293.928 549.852 289.361C567.035 286.016 577.76 277.151 587.285 263.014Z"/>
		<path fill="#231F20" d="M385.703 282.983C386.713 282.956 387.501 283.596 388.309 284.134C401.114 292.651 413.397 301.819 426.038 310.547C438.248 318.976 450.823 326.89 463.176 335.11C472.478 341.301 481.686 347.718 491.281 353.45C500.889 359.19 510.751 363.965 521.299 367.711C516.36 370.106 511.434 372.496 506.382 374.649C492.338 379.839 478.369 381.232 463.484 381.5C455.281 374.991 447.733 367.067 440.253 359.744Q421.899 341.826 404.514 322.966C394.657 312.312 384.235 301.417 376.796 288.874C380.068 287.17 382.844 285.302 385.703 282.983Z"/>
		<path fill="#231F20" d="M380.35 301.328C383.172 304.405 385.594 308.652 387.839 312.166C397.458 327.227 405.414 343.169 413.578 359.04Q429.078 389.083 443.666 419.578C446.335 425.051 449.301 430.373 451.969 435.849C456.715 445.59 461.163 455.629 465.472 465.572C469.393 474.619 473.114 483.959 475.926 493.417C461.09 480.713 448.416 465.256 434.865 451.183C428.352 444.481 422.252 437.445 415.908 430.593C409.814 424.011 395.843 410.303 392.11 402.974C390.45 399.715 390.314 395.909 389.992 392.334C403.667 407.237 418.829 420.537 432.687 435.222C430.713 431.715 428.467 428.379 426.454 424.896C417.102 408.713 407.639 392.508 398.583 376.166C395.219 370.095 390.686 363.979 388.469 357.399C387.046 353.175 386.403 348.67 385.602 344.296C382.991 330.029 381.509 315.773 380.35 301.328Z"/>
		<path fill="#231F20" d="M386.009 189.587C386.117 189.572 386.225 189.552 386.334 189.541C387.569 189.416 390.195 189.256 391.098 190.265C391.99 191.261 392.044 193.149 392.132 194.441C393.447 213.729 386.306 231.757 373.764 246.193C364.778 256.536 351.045 265.851 337.084 266.825C335.38 266.988 333.566 267.026 331.98 266.333C331.333 265.598 331.188 264.941 331.042 263.981C330.642 261.335 330.84 258.452 330.91 255.78C331.303 240.787 336.354 227.335 345.227 215.295C355.298 201.63 369.043 192.161 386.009 189.587Z"/>
		<path fill="#231F20" d="M307.625 350.365C310.332 352.186 322.921 389 325.545 394.85C319.657 409.416 313.494 423.865 307.687 438.465C304.5 446.475 301.205 454.362 298.695 462.625C305.98 449.635 312.324 436.053 319.107 422.792C322.663 415.838 326.045 407.399 331.294 401.585C332.698 404.521 333.768 407.631 334.92 410.673Q330.46 420.304 325.706 429.793C321.876 437.862 317.469 445.705 313.481 453.709C305.028 470.675 296.738 487.798 286.966 504.053C287.385 495.712 288.556 487.397 289.506 479.103Q292.357 453.861 295.756 428.687C298.201 409.118 300.386 389.648 303.626 370.177C304.64 364.084 305.444 356.098 307.625 350.365Z"/>
		<path fill="#231F20" d="M239.044 261.065C239.653 260.966 241.103 260.641 241.662 261.005C242.796 261.745 247.302 267.96 248.697 269.557C253.516 275.079 259.034 280.612 265.118 284.716C258.542 286.809 251.649 288.143 244.93 289.737C233.552 292.438 222.145 295.227 210.937 298.57C200.219 295.697 190.278 292.129 180.282 287.325C167.828 281.402 155.854 276.932 142.319 274.27C152.454 271.178 163.481 269.99 173.974 268.576C195.628 265.657 217.388 263.857 239.044 261.065Z"/>
		<path fill="#231F20" d="M271.93 290.226C274.568 290.867 279.712 294.595 282.485 296.006C285.758 297.671 289.184 298.99 292.604 300.317C289.096 304.551 284.724 308.063 281.048 312.164C276.211 317.56 271.634 323.193 266.76 328.555C263.362 332.291 259.709 335.805 256.165 339.401C253.221 342.389 250.413 345.571 247.125 348.187C233.231 348.111 218.717 346.242 205.368 342.369C195.952 340.029 186.688 336.039 178.275 331.243C191.556 332.565 206.733 331.906 218.93 326.118C228.612 321.523 237.753 314.202 246.436 307.931C254.82 301.876 263.499 296.225 271.93 290.226Z"/>
		<path fill="#231F20" d="M300.18 301.991C301.463 302.093 302.589 302.153 303.794 302.659C304.754 305.356 304.5 313.389 304.733 316.771Q305.294 325.181 306.454 333.53C303.716 340.183 300.338 346.629 297.268 353.142C294.407 359.212 291.821 365.418 288.847 371.434C286.114 376.962 283.046 382.34 280.606 388.007C264.072 393.905 243.104 393.606 226.965 386.853C223.288 385.353 220.282 383.473 217.114 381.122C229.132 382.028 234.464 384.983 247.55 382.306C258.753 370.982 267.517 356.248 276.042 342.858C284.575 329.455 293.045 316.223 300.18 301.991Z"/>
		<path fill="#231F20" d="M251.451 204.096C252.88 204.113 254.241 204.165 255.625 204.558C268.979 208.355 284.594 227.854 291.14 239.914C294.205 245.561 301.747 261.123 299.507 266.946C299.121 267.951 298.361 268.078 297.454 268.468C297.361 268.482 297.269 268.498 297.176 268.511C288.989 269.684 279.869 265.372 273.533 260.536C261.221 251.139 251.965 235.336 249.983 219.989C249.327 214.915 248.069 208.457 251.451 204.096Z"/>
		<path fill="#231F20" d="M357.995 60.0567C358.697 60.0185 359.44 59.9622 360.139 60.05C361.207 60.1841 362.568 60.808 363.152 61.7534C363.808 62.8141 363.629 64.1977 363.33 65.3429C360.941 74.4954 341.139 95.1717 333.458 101.605C328.582 105.689 323.643 108.991 318.114 112.133C322.459 106.237 329.123 101.305 334.229 95.9908C343.424 86.4189 351.472 75.8808 358.892 64.9023Q351.499 66.3573 344.334 68.6864C313.05 79.0755 282.303 102.996 267.381 132.666C261.862 145.207 259.45 155.09 261.456 168.921C266.489 162.585 272.456 158.121 279.358 154.057C278.742 157.222 278.47 160.393 278.295 163.605C271.153 167.497 265.806 174.278 261.381 180.936C258.377 175.424 256.342 169.13 255.682 162.88C253.677 143.87 264.037 124.822 275.611 110.42C291.171 91.0584 313.044 75.7473 335.928 66.3519C342.99 63.4524 350.371 60.8779 357.995 60.0567Z"/>
		<path fill="#231F20" d="M617.603 260.306L618.057 260.518C618.826 263.976 618.106 268.779 617.881 272.317C616.351 296.37 610.407 321.283 600.092 343.091Q599.003 345.427 597.858 347.735Q596.712 350.043 595.509 352.322Q594.307 354.601 593.049 356.85Q591.791 359.099 590.477 361.316Q589.164 363.533 587.796 365.717Q586.429 367.901 585.008 370.051Q583.587 372.201 582.113 374.315Q580.64 376.429 579.114 378.506Q577.589 380.583 576.013 382.621Q574.437 384.66 572.811 386.66Q571.186 388.659 569.511 390.618Q567.836 392.576 566.114 394.493Q564.392 396.41 562.622 398.284Q560.853 400.157 559.039 401.987Q557.224 403.816 555.364 405.601Q553.505 407.385 551.602 409.123Q549.7 410.861 547.755 412.551Q545.809 414.241 543.823 415.883Q541.837 417.525 539.811 419.118Q537.785 420.71 535.72 422.252Q533.656 423.794 531.554 425.285Q529.452 426.776 527.313 428.214Q525.175 429.653 523.002 431.038Q520.829 432.423 518.623 433.755Q516.416 435.086 514.178 436.362Q511.939 437.639 509.67 438.86Q507.4 440.081 505.101 441.245Q502.802 442.41 500.475 443.517Q498.149 444.625 495.795 445.675Q493.442 446.725 491.063 447.716Q488.684 448.708 486.282 449.64Q483.88 450.573 481.455 451.446L481.284 451.354C481.761 450.52 502.074 440.121 504.827 438.482C524.261 426.908 546.52 410.935 561.203 393.828C566.447 387.718 571.754 381.567 576.466 375.034Q578.305 372.468 580.07 369.852Q581.835 367.235 583.526 364.57Q585.216 361.905 586.831 359.192Q588.445 356.48 589.982 353.724Q591.519 350.967 592.978 348.168Q594.436 345.369 595.815 342.529Q597.194 339.69 598.491 336.813Q599.789 333.936 601.005 331.024Q602.221 328.111 603.354 325.165Q604.488 322.219 605.537 319.243Q606.586 316.266 607.551 313.261Q608.516 310.256 609.395 307.224Q610.274 304.193 611.068 301.138Q611.861 298.083 612.568 295.007Q613.274 291.931 613.893 288.836Q614.513 285.741 615.044 282.63C616.129 276.064 618.105 266.875 617.603 260.306Z"/>
		<path fill="#231F20" d="M133.806 187.559C134.609 187.498 135.67 187.449 136.451 187.651C139.587 188.463 138.587 196.498 139.074 199.068C139.384 200.709 140.119 202.174 140.849 203.662C145.046 205.834 153.393 206.502 156.567 209.671C157.225 210.329 157.26 210.702 157.228 211.595C156.819 212.105 156.536 212.63 155.876 212.835C154.974 213.116 153.541 212.947 152.58 212.946C147.949 212.943 143.068 212.682 138.931 215.124C132.513 218.912 130.77 226.541 129.189 233.264C128.75 233.954 128.431 234.521 127.584 234.752C126.732 234.985 126.211 234.726 125.485 234.328C124.168 232.488 125.143 221.771 124.783 218.721C123.203 205.34 113.145 210.085 108.297 206.222C107.882 205.378 107.753 205.025 107.85 204.05C109.824 201.165 119.705 203.478 124.539 201.803C129.297 200.153 131.774 191.789 133.806 187.559ZM122.876 206.849C127.017 209.558 127.813 214.999 128.757 219.511L129.031 220.834L131.553 216.306C134.11 212.401 137.076 211.455 141.441 210.54Q144.018 209.992 146.612 209.534C143.663 208.663 140.628 207.863 137.898 206.417C136.421 204.188 134.389 197.991 133.842 197.347C131.181 202.472 128.052 204.508 122.876 206.849Z"/>
		<path fill="#231F20" d="M325.103 137.946C329.954 137.468 339.213 137.12 343.773 138.581L343.715 138.925C341.283 140.107 340.317 143.415 339.387 145.753C321.315 144.616 302.869 147.924 287.89 158.627C286.831 168.454 287.852 177.384 290.405 186.89C291.58 190.951 293.118 194.911 294.319 198.972C285.752 189.887 282.789 175.243 283.198 163.061C283.316 159.546 283.703 150.799 286.416 148.263C286.926 148.479 287.672 148.865 288.225 148.87C289.775 148.887 293.318 146.686 294.831 145.992Q298.399 144.325 302.101 142.98Q305.803 141.635 309.609 140.623Q313.416 139.611 317.297 138.941Q321.178 138.27 325.103 137.946Z"/>
		<path fill="#231F20" d="M120.006 274.47C120.718 275.23 122.507 289.917 122.871 291.879C125.137 304.081 129.31 316.802 134.017 328.258C145.02 355.042 160.607 378.587 180.415 399.696C185.821 405.457 191.764 410.638 197.194 416.336C193.094 415.261 175.633 398.684 171.806 394.847C145.992 368.963 129.592 336.009 122.937 300.142C121.376 291.725 119.998 283.052 120.006 274.47Z"/>
		<path fill="#231F20" d="M202.454 448.498C202.836 448.518 203.309 448.512 203.684 448.62C204.221 448.775 204.635 449.047 204.883 449.549C205.683 451.166 203.913 454.553 203.285 456.2C207.272 454.745 212.315 452.544 216.637 453.476C217.533 453.669 217.927 453.837 218.397 454.616C218.291 455.037 218.308 455.077 218.048 455.507C215.941 459 207.499 460.26 203.95 461.109C206.733 463.781 210.186 466.879 211.729 470.494C212.176 471.539 212.287 472.214 211.872 473.245C211.138 473.475 210.938 473.519 210.179 473.233C207.001 472.037 203.656 466.965 202.337 464.011Q200.539 469.194 198.46 474.27C197.572 476.408 196.696 478.772 195.189 480.567C194.218 481.725 193.309 482.17 191.828 482.308C191.459 482.079 191.065 481.97 190.913 481.534C189.604 477.779 195.819 466.55 197.536 462.763C192.254 463.106 182.866 465.876 178.593 465.233L178.009 464.346C178.033 464.309 178.053 464.268 178.083 464.234C182.942 458.619 191.115 457.904 197.974 457.549C198.049 456.321 198.119 455.084 198.394 453.88C198.985 451.299 200.232 449.856 202.454 448.498Z"/>
		<path fill="#231F20" d="M110.209 309.247C111.209 310.259 114.034 320.883 114.734 322.896C119.335 336.131 124.116 347.893 130.873 360.269C142.618 381.777 161.548 401.362 179.559 417.742C174.883 416.381 154.621 397.442 150.497 393.112C131.737 373.414 117.906 350.02 112.409 323.2C111.514 318.829 110.1 313.708 110.209 309.247Z"/>
		<path fill="#231F20" d="M573.384 143.528C574.099 143.46 575.082 143.334 575.788 143.491C576.561 143.664 576.781 144.125 577.109 144.772C576.965 147.579 573.806 150.36 571.996 152.326C574.595 155.175 578.823 158.971 579.842 162.786C580.06 163.601 580.074 163.721 579.66 164.437C579.536 164.457 579.413 164.493 579.287 164.495C576.229 164.545 570.734 158.692 568.511 156.735L562.676 164.725C561.806 166.039 560.876 167.583 559.45 168.347C558.719 168.739 558.607 168.728 557.856 168.51C557.511 167.95 557.422 167.601 557.356 166.949C556.852 161.906 560.981 156.926 564.028 153.408C561.557 151.322 558.128 148.681 557.569 145.27C557.822 144.881 557.873 144.584 558.354 144.457C561.375 143.662 565.938 147.33 568.292 148.888C569.921 147.006 571.54 145.203 573.384 143.528Z"/>
		<path fill="#231F20" d="M610.768 357.202C610.919 357.451 610.893 357.837 610.855 358.108C610.339 361.875 607.977 366.473 606.532 370.004Q605.54 372.377 604.481 374.721Q603.421 377.065 602.295 379.378Q601.168 381.69 599.976 383.969Q598.783 386.248 597.526 388.492Q596.268 390.736 594.946 392.942Q593.625 395.149 592.24 397.317Q590.855 399.484 589.409 401.611Q587.962 403.738 586.455 405.823Q584.948 407.907 583.382 409.948Q581.815 411.988 580.191 413.982Q578.566 415.977 576.885 417.924Q575.204 419.87 573.467 421.768Q571.731 423.666 569.94 425.513Q568.15 427.359 566.307 429.154Q564.464 430.949 562.571 432.69Q560.677 434.43 558.734 436.116C558.701 435.972 558.704 435.407 558.753 435.275C559.106 434.338 564.721 428.287 565.899 426.855C579.499 410.322 591.707 393.081 602.281 374.447C605.392 368.967 608.842 363.237 610.768 357.202Z"/>
		<path fill="#231F20" d="M484.518 396.63C485.932 396.623 487.451 396.876 488.753 397.433C491.008 398.397 493.293 400.452 494.17 402.753C494.602 403.886 494.647 405.1 494.057 406.187C493.196 407.773 491.734 408.347 490.091 408.828C488.219 408.657 486.569 408.256 484.92 407.322C482.799 406.12 480.474 403.857 479.889 401.448C479.664 400.523 479.753 399.602 480.27 398.79C481.202 397.326 482.946 396.975 484.518 396.63Z"/>
		<path fill="#231F20" d="M357.508 189.144C357.675 189.179 357.848 189.197 358.01 189.25C358.9 189.538 359.228 189.931 359.677 190.707C359.597 191.979 359.449 192.231 358.268 192.839C346.152 199.074 346.466 200.174 338.206 210.668C336.972 210.326 336.502 210.203 335.65 209.223C335.261 207.662 335.712 206.69 336.537 205.34C340.497 198.868 350.042 190.993 357.508 189.144Z"/>
		<path fill="#231F20" d="M225.902 418.706C229.006 419.251 239.044 425.452 242.818 427.303C249.779 430.718 256.997 433.726 263.831 437.387C262.106 437.583 260.429 437.252 258.74 436.925C248.476 434.94 231.813 427.521 225.902 418.706Z"/>
		<path fill="#231F20" d="M169.523 167.278C170.389 167.313 171.358 167.319 172.195 167.557C173.726 167.992 175.179 169.261 175.922 170.651Q176.061 170.915 176.171 171.192Q176.281 171.469 176.361 171.757Q176.441 172.044 176.489 172.339Q176.538 172.633 176.554 172.931Q176.571 173.229 176.555 173.527Q176.54 173.825 176.493 174.119Q176.446 174.414 176.367 174.701Q176.289 174.989 176.18 175.267C175.352 177.394 173.568 178.313 171.58 179.108C170.307 179.153 168.993 179.123 167.814 178.59Q167.532 178.465 167.265 178.312Q166.997 178.159 166.747 177.979Q166.497 177.799 166.267 177.594Q166.036 177.389 165.829 177.161Q165.621 176.934 165.438 176.686Q165.255 176.438 165.098 176.172Q164.942 175.907 164.814 175.626Q164.685 175.346 164.587 175.054C164.078 173.511 164.204 171.877 164.987 170.448C166.024 168.557 167.508 167.796 169.523 167.278Z"/>
		<path fill="#231F20" d="M267.009 201.546C270.261 201.792 273.59 203.547 276.206 205.432C278.435 207.037 282.204 210.217 282.407 213.185C282.487 214.336 281.842 214.941 281.207 215.802C277.872 214.697 275.291 210.308 272.399 208.261C270.478 206.901 267.655 206.607 266.343 204.559C266.277 203.37 266.555 202.635 267.009 201.546Z"/>
	</g>
	<g>
		<path fill="#FEFEFE" d="M0 0L734.372 0C734.767 0.69259 734.92 1.16481 734.957 1.96166C735.229 7.8514 735.001 13.8573 735.001 19.7595L735.003 53.8949L735.009 158.101L735.006 476.793L735.001 564.177L734.999 588.302C734.999 591.597 735.455 595.549 734.9 598.75C734.817 599.229 734.608 599.585 734.372 600L0 600L0 0ZM348.112 147.825C370.112 152.8 386.789 164.708 398.831 183.84Q399.687 185.179 400.475 186.56Q401.264 187.94 401.983 189.357Q402.702 190.775 403.35 192.226Q403.999 193.677 404.574 195.159Q405.15 196.64 405.652 198.148Q406.153 199.657 406.58 201.188Q407.006 202.719 407.357 204.269Q407.707 205.82 407.98 207.386Q408.253 208.951 408.449 210.529Q408.644 212.106 408.761 213.691Q408.879 215.276 408.917 216.865Q408.956 218.454 408.916 220.043Q408.876 221.632 408.758 223.217Q408.639 224.802 408.442 226.38Q408.246 227.957 407.971 229.522Q407.697 231.088 407.345 232.638C402.862 252.079 389.522 267.175 372.859 277.507C351.419 290.801 326.991 296.21 302.195 290.263Q300.407 289.819 298.643 289.288Q296.879 288.756 295.143 288.139Q293.408 287.521 291.704 286.819Q290.001 286.116 288.335 285.331Q286.668 284.545 285.043 283.679Q283.417 282.812 281.836 281.867Q280.255 280.921 278.722 279.899Q277.19 278.876 275.709 277.78Q274.229 276.683 272.804 275.515Q271.38 274.347 270.014 273.11Q268.649 271.873 267.347 270.57Q266.044 269.267 264.807 267.902Q263.57 266.537 262.402 265.112Q261.234 263.688 260.138 262.208Q259.041 260.727 258.019 259.195Q256.997 257.662 256.051 256.081C246.735 240.716 244.676 220.894 248.985 203.557C250.587 197.111 253.601 189.157 257.846 183.925C256.444 181.34 254.941 178.767 253.741 176.081C241.302 192.229 236.594 212.276 239.237 232.376C241.9 252.626 254.456 271.421 270.528 283.71C286.331 295.794 305.421 300.608 325.101 300.211C328.675 300.139 337.713 298.768 340.15 299.198C337.167 300.883 320.085 317.41 319.085 320.13C319.304 320.88 319.325 321.143 319.882 321.674C321.594 320.931 333.103 308.534 335.654 306.121Q338.525 303.392 341.732 301.065C350.173 303.824 363.747 312.876 372.436 317.199C372.818 324.461 373.813 331.7 374.331 338.959C370.708 336.575 343.378 318.454 341.529 318.427C339.67 319.323 323.082 338.116 321.696 340.583C321.287 341.312 321.166 341.669 321.373 342.474L321.92 342.595C323.179 341.92 337.866 325.287 340.637 322.53C341.273 351.263 349.064 380.537 359.77 407.07C354.64 411.049 351.572 418.413 348.623 424.056C346.526 417.688 343.91 411.436 341.487 405.183C333.658 384.971 325.068 365.08 319.023 344.223C316.876 336.816 314.662 328.939 313.67 321.298C313.256 318.105 312.496 305.562 311.467 303.654C310.505 303.203 309.824 303.174 308.77 303.184L308.412 303.612C307.872 308.716 308.502 314.224 309.032 319.315C311.829 346.172 321.029 371.801 330.72 396.816C332.793 402.169 334.614 407.621 336.747 412.95C342.383 427.025 348.536 440.917 354.31 454.939Q362.031 474.203 370.309 493.235C372.911 499.068 375.44 505.089 378.687 510.59C380.059 510.016 381.368 509.315 382.689 508.632C383.624 504.279 383.602 499.513 383.864 495.075C384.556 483.383 384.721 471.815 384.733 460.11C384.75 443.905 384.216 427.752 383.938 411.555C383.719 398.762 383.88 385.83 383.047 373.065Q381.559 350.421 379.012 327.872C377.572 316.129 375.593 304.424 374.007 292.693L369.678 294.237C370.896 301.188 371.43 308.414 372.147 315.438C362.903 309.061 352.557 303.4 342.319 298.805C342.48 298.729 342.64 298.651 342.802 298.576C345.38 297.392 348.62 296.77 351.361 295.944Q356.982 294.246 362.396 291.973C383.922 283.182 403.176 266.34 411.696 244.329C418.356 227.125 418.293 206.978 410.791 190.019C401.89 169.897 384.667 152.124 363.901 144.309C360.737 143.118 357.498 142.206 354.237 141.329C358.982 135.778 364.266 131.333 369.97 126.8C374.457 123.235 378.928 119.637 383.731 116.501C402.975 103.934 430.241 91.8738 453.407 90.1374C456.984 89.8692 460.645 89.8217 464.207 90.2693C455.874 105.061 434.833 115.632 419.031 120.018C414.651 121.234 410.545 121.21 406.098 120.344C405.024 120.135 403.445 119.401 402.648 120.169C402.476 121.206 402.506 121.774 402.838 122.776C405.069 125.045 408.784 125.806 411.872 125.82C428.853 125.894 450.695 113.156 462.436 101.375C465.236 98.5667 469.244 94.2513 469.173 89.9864C469.153 88.742 468.672 87.6103 467.729 86.7872C463.807 83.3662 455.183 84.4016 450.336 84.9305C424.22 87.7801 392.172 103.122 371.562 119.083Q367.445 122.326 363.52 125.799Q359.596 129.273 355.877 132.966Q352.158 136.658 348.657 140.558Q345.156 144.458 341.884 148.552C331.953 160.942 323.728 177.809 325.41 193.999Q325.545 195.225 325.772 196.438C327.071 191.449 327.804 186.33 329.194 181.368C332.752 168.656 339.844 157.938 348.112 147.825ZM418.016 237.285C415.348 246.63 411.474 255.052 405.795 262.975L411.517 263.031L503.405 262.985C508.392 262.975 532.191 263.589 535.445 262.534C535.613 262.48 596.091 221.589 598.878 218.998C599.369 218.541 599.735 218.009 600.059 217.426C598.466 217.468 596.736 217.391 595.166 217.612C585.073 218.385 575.007 219.769 564.954 220.938L506.838 227.797L447.992 234.158C437.997 235.196 427.988 236.038 418.016 237.285ZM401.348 268.345C398.608 271.781 395.617 274.807 392.336 277.721C398.868 281.443 405.827 284.575 412.579 287.886Q447.657 304.441 483.847 318.4Q493.187 322.081 502.574 325.638C505.737 326.829 509.001 328.259 512.268 329.116C539.307 321.857 565.939 303.691 580.02 279.129C581.467 276.606 587.44 265.413 587.285 263.014C577.76 277.151 567.035 286.016 549.852 289.361C526.387 293.928 501.336 287.498 478.274 283.065C459.171 279.392 440.148 275.398 421.008 271.906C414.482 270.715 407.917 269.246 401.348 268.345ZM376.796 288.874C384.235 301.417 394.657 312.312 404.514 322.966Q421.899 341.826 440.253 359.744C447.733 367.067 455.281 374.991 463.484 381.5C478.369 381.232 492.338 379.839 506.382 374.649C511.434 372.496 516.36 370.106 521.299 367.711C510.751 363.965 500.889 359.19 491.281 353.45C481.686 347.718 472.478 341.301 463.176 335.11C450.823 326.89 438.248 318.976 426.038 310.547C413.397 301.819 401.114 292.651 388.309 284.134C387.501 283.596 386.713 282.956 385.703 282.983C382.844 285.302 380.068 287.17 376.796 288.874ZM432.687 435.222C418.829 420.537 403.667 407.237 389.992 392.334C390.314 395.909 390.45 399.715 392.11 402.974C395.843 410.303 409.814 424.011 415.908 430.593C422.252 437.445 428.352 444.481 434.865 451.183C448.416 465.256 461.09 480.713 475.926 493.417C473.114 483.959 469.393 474.619 465.472 465.572C461.163 455.629 456.715 445.59 451.969 435.849C449.301 430.373 446.335 425.051 443.666 419.578Q429.078 389.083 413.578 359.04C405.414 343.169 397.458 327.227 387.839 312.166C385.594 308.652 383.172 304.405 380.35 301.328C381.509 315.773 382.991 330.029 385.602 344.296C386.403 348.67 387.046 353.175 388.469 357.399C390.686 363.979 395.219 370.095 398.583 376.166C407.639 392.508 417.102 408.713 426.454 424.896C428.467 428.379 430.713 431.715 432.687 435.222ZM337.084 266.825C351.045 265.851 364.778 256.536 373.764 246.193C386.306 231.757 393.447 213.729 392.132 194.441C392.044 193.149 391.99 191.261 391.098 190.265C390.195 189.256 387.569 189.416 386.334 189.541C386.225 189.552 386.117 189.572 386.009 189.587C369.043 192.161 355.298 201.63 345.227 215.295C336.354 227.335 331.303 240.787 330.91 255.78C330.84 258.452 330.642 261.335 331.042 263.981C331.188 264.941 331.333 265.598 331.98 266.333C333.566 267.026 335.38 266.988 337.084 266.825ZM286.966 504.053C296.738 487.798 305.028 470.675 313.481 453.709C317.469 445.705 321.876 437.862 325.706 429.793Q330.46 420.304 334.92 410.673C333.768 407.631 332.698 404.521 331.294 401.585C326.045 407.399 322.663 415.838 319.107 422.792C312.324 436.053 305.98 449.635 298.695 462.625C301.205 454.362 304.5 446.475 307.687 438.465C313.494 423.865 319.657 409.416 325.545 394.85C322.921 389 310.332 352.186 307.625 350.365C305.444 356.098 304.64 364.084 303.626 370.177C300.386 389.648 298.201 409.118 295.756 428.687Q292.357 453.861 289.506 479.103C288.556 487.397 287.385 495.712 286.966 504.053ZM142.319 274.27C155.854 276.932 167.828 281.402 180.282 287.325C190.278 292.129 200.219 295.697 210.937 298.57C222.145 295.227 233.552 292.438 244.93 289.737C251.649 288.143 258.542 286.809 265.118 284.716C259.034 280.612 253.516 275.079 248.697 269.557C247.302 267.96 242.796 261.745 241.662 261.005C241.103 260.641 239.653 260.966 239.044 261.065C217.388 263.857 195.628 265.657 173.974 268.576C163.481 269.99 152.454 271.178 142.319 274.27ZM178.275 331.243C186.688 336.039 195.952 340.029 205.368 342.369C218.717 346.242 233.231 348.111 247.125 348.187C250.413 345.571 253.221 342.389 256.165 339.401C259.709 335.805 263.362 332.291 266.76 328.555C271.634 323.193 276.211 317.56 281.048 312.164C284.724 308.063 289.096 304.551 292.604 300.317C289.184 298.99 285.758 297.671 282.485 296.006C279.712 294.595 274.568 290.867 271.93 290.226C263.499 296.225 254.82 301.876 246.436 307.931C237.753 314.202 228.612 321.523 218.93 326.118C206.733 331.906 191.556 332.565 178.275 331.243ZM197.194 416.336C191.764 410.638 185.821 405.457 180.415 399.696C160.607 378.587 145.02 355.042 134.017 328.258C129.31 316.802 125.137 304.081 122.871 291.879C122.507 289.917 120.718 275.23 120.006 274.47C119.998 283.052 121.376 291.725 122.937 300.142C129.592 336.009 145.992 368.963 171.806 394.847C175.633 398.684 193.094 415.261 197.194 416.336ZM287.89 158.627C302.869 147.924 321.315 144.616 339.387 145.753C340.317 143.415 341.283 140.107 343.715 138.925L343.773 138.581C339.213 137.12 329.954 137.468 325.103 137.946Q321.178 138.27 317.297 138.941Q313.416 139.611 309.609 140.623Q305.803 141.635 302.101 142.98Q298.399 144.325 294.831 145.992C293.318 146.686 289.775 148.887 288.225 148.87C287.672 148.865 286.926 148.479 286.416 148.263C283.703 150.799 283.316 159.546 283.198 163.061C282.789 175.243 285.752 189.887 294.319 198.972C293.118 194.911 291.58 190.951 290.405 186.89C287.852 177.384 286.831 168.454 287.89 158.627ZM197.974 457.549C191.115 457.904 182.942 458.619 178.083 464.234C178.053 464.268 178.033 464.309 178.009 464.346L178.593 465.233C182.866 465.876 192.254 463.106 197.536 462.763C195.819 466.55 189.604 477.779 190.913 481.534C191.065 481.97 191.459 482.079 191.828 482.308C193.309 482.17 194.218 481.725 195.189 480.567C196.696 478.772 197.572 476.408 198.46 474.27Q200.539 469.194 202.337 464.011C203.656 466.965 207.001 472.037 210.179 473.233C210.938 473.519 211.138 473.475 211.872 473.245C212.287 472.214 212.176 471.539 211.729 470.494C210.186 466.879 206.733 463.781 203.95 461.109C207.499 460.26 215.941 459 218.048 455.507C218.308 455.077 218.291 455.037 218.397 454.616C217.927 453.837 217.533 453.669 216.637 453.476C212.315 452.544 207.272 454.745 203.285 456.2C203.913 454.553 205.683 451.166 204.883 449.549C204.635 449.047 204.221 448.775 203.684 448.62C203.309 448.512 202.836 448.518 202.454 448.498C200.232 449.856 198.985 451.299 198.394 453.88C198.119 455.084 198.049 456.321 197.974 457.549ZM357.508 189.144C350.042 190.993 340.497 198.868 336.537 205.34C335.712 206.69 335.261 207.662 335.65 209.223C336.502 210.203 336.972 210.326 338.206 210.668C346.466 200.174 346.152 199.074 358.268 192.839C359.449 192.231 359.597 191.979 359.677 190.707C359.228 189.931 358.9 189.538 358.01 189.25C357.848 189.197 357.675 189.179 357.508 189.144ZM110.209 309.247C110.1 313.708 111.514 318.829 112.409 323.2C117.906 350.02 131.737 373.414 150.497 393.112C154.621 397.442 174.883 416.381 179.559 417.742C161.548 401.362 142.618 381.777 130.873 360.269C124.116 347.893 119.335 336.131 114.734 322.896C114.034 320.883 111.209 310.259 110.209 309.247ZM568.292 148.888C565.938 147.33 561.375 143.662 558.354 144.457C557.873 144.584 557.822 144.881 557.569 145.27C558.128 148.681 561.557 151.322 564.028 153.408C560.981 156.926 556.852 161.906 557.356 166.949C557.422 167.601 557.511 167.95 557.856 168.51C558.607 168.728 558.719 168.739 559.45 168.347C560.876 167.583 561.806 166.039 562.676 164.725L568.511 156.735C570.734 158.692 576.229 164.545 579.287 164.495C579.413 164.493 579.536 164.457 579.66 164.437C580.074 163.721 580.06 163.601 579.842 162.786C578.823 158.971 574.595 155.175 571.996 152.326C573.806 150.36 576.965 147.579 577.109 144.772C576.781 144.125 576.561 143.664 575.788 143.491C575.082 143.334 574.099 143.46 573.384 143.528C571.54 145.203 569.921 147.006 568.292 148.888ZM169.523 167.278C167.508 167.796 166.024 168.557 164.987 170.448C164.204 171.877 164.078 173.511 164.587 175.054Q164.685 175.346 164.814 175.626Q164.942 175.907 165.098 176.172Q165.255 176.438 165.438 176.686Q165.621 176.934 165.829 177.161Q166.036 177.389 166.267 177.594Q166.497 177.799 166.747 177.979Q166.997 178.159 167.265 178.312Q167.532 178.465 167.814 178.59C168.993 179.123 170.307 179.153 171.58 179.108C173.568 178.313 175.352 177.394 176.18 175.267Q176.289 174.989 176.367 174.701Q176.446 174.414 176.493 174.119Q176.54 173.825 176.555 173.527Q176.571 173.229 176.554 172.931Q176.538 172.633 176.489 172.339Q176.441 172.044 176.361 171.757Q176.281 171.469 176.171 171.192Q176.061 170.915 175.922 170.651C175.179 169.261 173.726 167.992 172.195 167.557C171.358 167.319 170.389 167.313 169.523 167.278ZM267.009 201.546C266.555 202.635 266.277 203.37 266.343 204.559C267.655 206.607 270.478 206.901 272.399 208.261C275.291 210.308 277.872 214.697 281.207 215.802C281.842 214.941 282.487 214.336 282.407 213.185C282.204 210.217 278.435 207.037 276.206 205.432C273.59 203.547 270.261 201.792 267.009 201.546ZM558.734 436.116Q560.677 434.43 562.571 432.69Q564.464 430.949 566.307 429.154Q568.15 427.359 569.94 425.513Q571.731 423.666 573.467 421.768Q575.204 419.87 576.885 417.924Q578.566 415.977 580.191 413.982Q581.815 411.988 583.382 409.948Q584.948 407.907 586.455 405.823Q587.962 403.738 589.409 401.611Q590.855 399.484 592.24 397.317Q593.625 395.149 594.946 392.942Q596.268 390.736 597.526 388.492Q598.783 386.248 599.976 383.969Q601.168 381.69 602.295 379.377Q603.421 377.065 604.481 374.721Q605.54 372.377 606.532 370.004C607.977 366.473 610.339 361.875 610.855 358.108C610.893 357.837 610.919 357.451 610.768 357.202C608.842 363.237 605.392 368.967 602.281 374.447C591.707 393.081 579.499 410.322 565.899 426.855C564.721 428.287 559.106 434.338 558.753 435.275C558.704 435.407 558.701 435.972 558.734 436.116ZM484.518 396.63C482.946 396.975 481.202 397.326 480.27 398.79C479.753 399.602 479.664 400.523 479.889 401.448C480.474 403.857 482.799 406.12 484.92 407.322C486.569 408.256 488.219 408.657 490.091 408.828C491.734 408.347 493.196 407.773 494.057 406.187C494.647 405.1 494.602 403.886 494.17 402.753C493.293 400.452 491.008 398.397 488.753 397.433C487.451 396.876 485.932 396.623 484.518 396.63ZM225.902 418.706C231.813 427.521 248.476 434.94 258.74 436.925C260.429 437.252 262.106 437.583 263.831 437.387C256.997 433.726 249.779 430.718 242.818 427.303C239.044 425.452 229.006 419.251 225.902 418.706ZM306.454 333.53Q305.294 325.181 304.733 316.771C304.5 313.389 304.754 305.356 303.794 302.659C302.589 302.153 301.463 302.093 300.18 301.991C293.045 316.223 284.575 329.455 276.042 342.858C267.517 356.248 258.753 370.982 247.55 382.306C234.464 384.983 229.132 382.028 217.114 381.122C220.282 383.473 223.288 385.353 226.965 386.853C243.104 393.606 264.072 393.905 280.606 388.007C283.046 382.34 286.114 376.962 288.847 371.434C291.821 365.418 294.407 359.212 297.268 353.142C300.338 346.629 303.716 340.183 306.454 333.53ZM133.806 187.559C131.774 191.789 129.297 200.153 124.539 201.803C119.705 203.478 109.824 201.165 107.85 204.05C107.753 205.025 107.882 205.378 108.297 206.222C113.145 210.085 123.203 205.34 124.783 218.721C125.143 221.771 124.168 232.488 125.485 234.328C126.211 234.726 126.732 234.985 127.584 234.752C128.431 234.521 128.75 233.954 129.189 233.264C130.77 226.541 132.513 218.912 138.931 215.124C143.068 212.682 147.949 212.943 152.58 212.946C153.541 212.947 154.974 213.116 155.876 212.835C156.536 212.63 156.819 212.105 157.228 211.595C157.26 210.702 157.225 210.329 156.567 209.671C153.393 206.502 145.046 205.834 140.849 203.662C140.119 202.174 139.384 200.709 139.074 199.068C138.587 196.498 139.587 188.463 136.451 187.651C135.67 187.449 134.609 187.498 133.806 187.559ZM617.603 260.306C618.105 266.875 616.129 276.064 615.044 282.63Q614.513 285.741 613.893 288.836Q613.274 291.931 612.568 295.007Q611.861 298.083 611.068 301.138Q610.274 304.193 609.395 307.224Q608.516 310.256 607.551 313.261Q606.586 316.266 605.537 319.243Q604.488 322.219 603.355 325.165Q602.221 328.111 601.005 331.024Q599.789 333.936 598.492 336.813Q597.194 339.69 595.815 342.53Q594.436 345.369 592.978 348.168Q591.519 350.967 589.982 353.724Q588.445 356.48 586.831 359.192Q585.216 361.905 583.526 364.57Q581.835 367.235 580.07 369.852Q578.305 372.468 576.466 375.034C571.754 381.567 566.447 387.718 561.203 393.828C546.52 410.935 524.261 426.908 504.827 438.482C502.074 440.121 481.761 450.52 481.284 451.354L481.455 451.446Q483.88 450.573 486.282 449.64Q488.684 448.708 491.063 447.716Q493.442 446.725 495.795 445.675Q498.149 444.625 500.475 443.517Q502.802 442.41 505.101 441.245Q507.4 440.081 509.67 438.86Q511.939 437.639 514.178 436.362Q516.416 435.086 518.623 433.755Q520.829 432.423 523.002 431.038Q525.175 429.653 527.314 428.214Q529.452 426.776 531.554 425.285Q533.656 423.794 535.721 422.252Q537.785 420.71 539.811 419.118Q541.837 417.525 543.823 415.883Q545.81 414.241 547.755 412.551Q549.7 410.861 551.602 409.123Q553.505 407.385 555.365 405.601Q557.224 403.816 559.039 401.987Q560.853 400.157 562.623 398.284Q564.392 396.41 566.114 394.493Q567.836 392.576 569.511 390.618Q571.186 388.659 572.811 386.66Q574.437 384.66 576.013 382.621Q577.589 380.583 579.114 378.506Q580.64 376.429 582.113 374.315Q583.587 372.201 585.008 370.051Q586.429 367.901 587.796 365.717Q589.164 363.533 590.477 361.316Q591.791 359.099 593.049 356.85Q594.307 354.601 595.509 352.322Q596.712 350.043 597.858 347.735Q599.003 345.427 600.092 343.091C610.407 321.283 616.351 296.37 617.881 272.317C618.106 268.779 618.826 263.976 618.057 260.518L617.603 260.306ZM261.381 180.936C265.806 174.278 271.153 167.497 278.295 163.605C278.47 160.393 278.742 157.222 279.358 154.057C272.456 158.121 266.489 162.585 261.456 168.921C259.45 155.09 261.862 145.207 267.381 132.666C282.303 102.996 313.05 79.0755 344.334 68.6864Q351.499 66.3573 358.892 64.9023C351.472 75.8808 343.424 86.4189 334.229 95.9908C329.123 101.305 322.459 106.237 318.114 112.133C323.643 108.991 328.582 105.689 333.458 101.605C341.139 95.1717 360.941 74.4954 363.33 65.3429C363.629 64.1977 363.808 62.8141 363.152 61.7534C362.568 60.808 361.207 60.1841 360.139 60.05C359.44 59.9622 358.697 60.0185 357.995 60.0567C350.371 60.8779 342.99 63.4524 335.928 66.3519C313.044 75.7473 291.171 91.0584 275.611 110.42C264.037 124.822 253.677 143.87 255.682 162.88C256.342 169.13 258.377 175.424 261.381 180.936ZM251.451 204.096C248.069 208.457 249.327 214.915 249.983 219.989C251.965 235.336 261.221 251.139 273.533 260.536C279.869 265.372 288.989 269.684 297.176 268.511C297.269 268.498 297.361 268.482 297.454 268.468C298.361 268.078 299.121 267.951 299.507 266.946C301.747 261.123 294.205 245.561 291.14 239.914C284.594 227.854 268.979 208.355 255.625 204.558C254.241 204.165 252.88 204.113 251.451 204.096Z"/>
		<path fill="#FEFEFE" d="M342.724 321.67C353.614 327.453 363.262 335.801 374.577 340.811C376.59 351.55 376.634 364.804 376.992 375.797C377.457 390.095 378.012 404.353 378.223 418.66C376.385 417.725 374.598 416.059 372.952 414.804C369.41 412.104 365.904 409.391 362.156 406.977C351.111 381.194 343.567 349.763 342.724 321.67Z"/>
		<path fill="#FEFEFE" d="M361.576 413.809C366.941 418.463 372.249 423.501 378.275 427.286Q378.285 432.615 378.14 437.942L375.681 435.889C374.365 434.632 371.867 431.716 370.069 431.526C369.962 431.514 369.854 431.533 369.746 431.537C369.671 432.553 370.566 433.613 371.214 434.347C372.148 435.405 373.172 436.408 374.22 437.352L378.079 440.862C378.065 446.451 378.163 452.044 378.218 457.634C375.197 454.676 372.058 451.83 368.962 448.951C367.095 452.346 365.423 455.882 363.666 459.338Q360.845 451.826 357.297 444.63C358.621 441.575 360.179 438.443 361.229 435.292C361.606 434.161 362.037 432.772 361.492 431.67C360.157 432.936 357.42 439.98 356.389 442.09C355.062 438.72 353.673 435.498 352.01 432.28C354.8 425.896 358.265 419.924 361.576 413.809Z"/>
		<path fill="#FEFEFE" d="M369.36 452.301C372.906 454.304 375.142 458.038 378.244 460.615C378.24 465.643 378.852 488.757 377.725 491.746C377.117 490.962 376.853 489.768 376.524 488.831C375.134 485.192 373.393 481.66 371.9 478.058C369.581 472.46 367.436 466.808 364.87 461.314C366.679 458.474 367.978 455.362 369.36 452.301Z"/>
		<path fill="#FEFEFE" d="M133.842 197.347C134.389 197.991 136.421 204.188 137.898 206.417C140.628 207.863 143.663 208.663 146.612 209.534Q144.018 209.992 141.441 210.54C137.076 211.455 134.11 212.401 131.553 216.306L129.031 220.834L128.757 219.511C127.813 214.999 127.017 209.558 122.876 206.849C128.052 204.508 131.181 202.472 133.842 197.347Z"/>
		<path fill="#231F20" d="M462.428 133.104C479.069 134.962 501.401 148.188 514.625 158.079C517.448 160.191 520.787 162.417 523.118 165.069C520.151 163.657 517.423 161.518 514.696 159.677C510.58 156.897 506.389 154.165 502.034 151.77C494.188 147.455 486.05 143.121 477.861 139.502C472.877 137.299 467.629 135.596 462.72 133.246L462.428 133.104Z"/>
	</g>
</svg>
