<?xml version="1.0" encoding="utf-8" ?>
<svg xmlns="http://www.w3.org/2000/svg" xmlns:xlink="http://www.w3.org/1999/xlink" width="735" height="600">
	<g>
		<path fill="#252223" d="M455.28 84.476C457.813 84.2063 460.475 84.2413 462.968 84.8009C464.774 85.2066 467.553 86.0961 468.516 87.7631C469.226 88.991 469.18 90.4205 468.827 91.7539C466.477 100.649 452.672 110.082 444.979 114.734C434.913 120.822 418.513 128.058 406.796 125.014C405.413 124.655 403.748 123.992 403.067 122.629C402.71 121.915 402.59 121.223 402.81 120.452C404.381 119.66 409.306 120.895 411.277 120.948C413.531 121.01 415.797 120.638 417.995 120.174C431.325 117.359 446.776 109.243 456.572 99.745C459.593 96.8169 461.978 93.6098 464.276 90.1149C459.869 89.9561 455.516 89.8699 451.121 90.3124C422.725 93.1714 393.568 108.151 371.424 125.594C365.359 130.371 359.461 135.324 354.563 141.322C361.43 143.185 368.24 145.734 374.426 149.27C392.873 159.815 408.536 178.822 414.093 199.466Q414.545 201.191 414.913 202.936Q415.281 204.681 415.564 206.442Q415.847 208.203 416.044 209.975Q416.241 211.747 416.352 213.527Q416.463 215.307 416.488 217.09Q416.513 218.874 416.451 220.656Q416.389 222.438 416.241 224.215Q416.092 225.993 415.858 227.76Q415.624 229.528 415.305 231.283Q414.985 233.037 414.581 234.774Q414.176 236.511 413.688 238.226Q413.201 239.942 412.63 241.631Q412.059 243.321 411.408 244.981Q410.756 246.641 410.024 248.267Q409.293 249.894 408.483 251.483Q407.674 253.072 406.788 254.62C392.632 278.985 368.397 291.52 342.062 298.521C351.164 302.662 364.426 309.084 372.055 315.487C371.621 308.36 370.704 301.257 369.818 294.175L374.106 292.842C375.608 303.968 377.397 315.053 378.753 326.199Q381.886 352.234 383.306 378.419C383.982 390.351 383.886 402.346 384.004 414.293L384.545 443.529C384.757 458.758 384.78 473.905 384.061 489.12C383.754 495.597 383.676 502.029 382.617 508.441C381.328 509.221 379.925 509.856 378.579 510.534C376.389 505.691 373.912 500.991 371.755 496.124Q360.987 471.383 350.792 446.399L341.607 424.368C339.663 419.711 337.917 414.744 335.317 410.409C330.323 418.821 326.544 428.215 322.075 436.938C314.31 452.097 306.833 467.419 298.936 482.507C295.068 489.897 290.894 497.104 286.925 504.437C287.152 496.163 288.586 487.806 289.567 479.591Q292.124 456.908 295.175 434.287C297.53 415.982 299.611 397.653 302.317 379.394C303.776 369.554 305.104 359.806 307.558 350.153C310.888 355.161 312.969 361.405 315.104 367.004C318.628 376.245 321.823 385.607 325.485 394.796C323.962 399.639 321.621 404.405 319.681 409.11L308.929 435.368C305.695 443.306 302.274 451.368 300.127 459.679C305.735 449.939 310.608 439.705 315.646 429.658C319.332 422.307 325.551 407.411 330.875 402.275C331.384 402.367 331.885 402.441 332.4 402.494C332.28 399.308 323.613 377.953 321.591 372.193L320.952 370.331C314.774 352.071 310.192 333.33 308.476 314.102C308.21 311.119 307.415 306.231 308.746 303.539C309.503 302.991 309.58 302.943 310.51 302.907C311.598 303.572 311.899 304.948 312.132 306.122C312.963 310.299 312.954 314.871 313.47 319.126C314.291 325.894 315.837 332.431 317.589 339.013C325.336 368.114 338.368 395.527 348.64 423.758C351.798 417.798 354.568 411.581 359.782 407.102C349.238 381.92 340.525 349.824 340.767 322.345C335.248 328.393 326.711 339.136 320.384 343.566C320.567 343.128 320.761 342.697 320.948 342.26C323.345 336.696 336.483 322.402 341.493 318.314C346.903 320.786 352.018 324.407 357.006 327.636C362.807 331.391 368.673 335.092 374.354 339.025C373.517 331.764 373.023 324.433 372.409 317.149C362.052 312.056 352.525 305.004 341.598 301.145C334.741 306.89 329.082 313.851 322.311 319.57C321.505 320.25 320.622 321.097 319.529 321.155L319.359 320.434C320.638 316.09 336.723 301.211 340.814 298.766C337.216 299.363 333.446 299.525 329.807 299.746C310.436 300.923 291.483 297.569 275.051 286.772C257.874 275.486 244.236 257.021 240.112 236.732C235.485 213.97 241.016 195.077 253.613 176.127C254.977 178.689 256.431 181.207 257.85 183.739C254.252 188.942 251.609 194.265 249.866 200.378C244.831 218.036 245.969 238.255 255.116 254.407Q255.569 255.216 256.041 256.014Q256.514 256.812 257.007 257.598Q257.499 258.384 258.011 259.157Q258.523 259.93 259.055 260.69Q259.586 261.451 260.136 262.197Q260.686 262.944 261.255 263.677Q261.823 264.409 262.41 265.127Q262.997 265.846 263.601 266.549Q264.206 267.252 264.827 267.94Q265.449 268.628 266.088 269.3Q266.727 269.973 267.383 270.629Q268.038 271.285 268.71 271.924Q269.382 272.564 270.069 273.186Q270.757 273.808 271.46 274.414Q272.163 275.019 272.88 275.606Q273.598 276.193 274.33 276.762Q275.063 277.331 275.809 277.882Q276.555 278.433 277.315 278.965Q278.075 279.496 278.848 280.009Q279.621 280.522 280.406 281.015Q281.191 281.508 281.989 281.981Q282.787 282.455 283.596 282.908Q284.405 283.361 285.225 283.794Q286.045 284.227 286.876 284.639Q287.707 285.052 288.548 285.443Q289.388 285.834 290.239 286.205Q291.089 286.575 291.948 286.924Q292.808 287.272 293.676 287.6Q294.543 287.927 295.419 288.232Q296.295 288.538 297.178 288.821Q298.061 289.105 298.951 289.366Q299.841 289.627 300.737 289.866C324.777 296.313 349.65 291.156 370.843 278.76C387.593 268.963 402.031 253.471 406.972 234.338Q407.36 232.816 407.673 231.276Q407.986 229.737 408.225 228.185Q408.463 226.632 408.625 225.069Q408.787 223.507 408.874 221.939Q408.96 220.37 408.97 218.799Q408.98 217.228 408.913 215.659Q408.847 214.09 408.704 212.525Q408.561 210.961 408.343 209.405Q408.124 207.85 407.83 206.307Q407.536 204.764 407.167 203.237Q406.799 201.71 406.356 200.202Q405.914 198.695 405.399 197.211Q404.883 195.727 404.297 194.27Q403.71 192.813 403.053 191.386Q402.396 189.959 401.671 188.566Q400.945 187.172 400.153 185.816C388.065 165.232 370.982 153.718 348.134 147.775C340.284 158.056 333.03 168.232 329.414 180.829C327.839 186.316 327.036 191.993 325.1 197.376C325.075 192.774 324.985 188.131 325.602 183.561C327.429 170.034 334.495 157.363 343.088 146.951C370.672 113.524 411.711 88.6337 455.28 84.476ZM362.234 406.999C367.618 410.732 372.72 414.943 378.172 418.548Q377.894 397.177 377.173 375.816C376.86 364.783 376.989 351.418 374.636 340.721C367.543 337.522 361.231 333.33 354.752 329.056C350.88 326.502 346.984 323.69 342.727 321.819C343.176 327.163 343.358 332.508 343.979 337.839Q345 346.757 346.661 355.578Q348.321 364.399 350.612 373.077Q352.903 381.756 355.812 390.247Q358.721 398.739 362.234 406.999ZM351.972 432.375Q354.608 437.012 356.383 442.041C357.992 438.111 359.552 434.155 362.304 430.863C361.159 435.585 359.699 440.209 357.184 444.405C359.573 449.19 361.637 454.098 363.712 459.023Q366.166 454.119 368.781 449.299C371.338 450.337 376.336 455.504 378.263 457.695C378.227 452.105 378.518 446.337 378.108 440.771C375.792 438.784 370.535 435.116 370.022 432.077L370.269 431.706C372.48 431.934 376.424 436.341 378.087 437.995L378.336 427.101C372.395 423.546 366.551 418.496 361.637 413.628C358.292 419.794 354.743 425.924 351.972 432.375ZM369.375 452.289C368.111 455.419 366.704 458.418 364.805 461.219C369.041 470.056 372.461 479.35 376.484 488.3C376.845 489.01 376.958 489.645 377.711 489.965C379.209 485.623 378.345 466.263 378.282 460.567C375.367 457.769 372.586 454.749 369.375 452.289Z"/>
		<path fill="#252223" d="M595.568 217.603C596.989 217.345 598.61 217.348 600.059 217.231C599.685 217.867 599.227 218.416 598.711 218.941C595.456 222.251 537.014 261.665 534.709 262.22C530.429 263.251 525.262 262.818 520.86 262.828L498.045 262.767C469.425 262.697 440.701 262.344 412.092 262.901L405.757 263.024C411.172 254.891 415.283 246.665 418.025 237.275C427.455 236.007 437.059 235.33 446.53 234.349L501.152 228.474C532.616 224.984 564.055 220.514 595.568 217.603Z"/>
		<path fill="#252223" d="M586.677 263.689L586.91 263.932C587.082 267.17 580.628 278.2 578.583 281.494C564.52 304.146 538.113 322.783 512.173 328.834C503.486 326.62 493.438 321.955 484.901 318.607Q447.801 304.243 411.775 287.366Q401.847 282.764 392.181 277.635C395.611 274.844 398.501 271.694 401.358 268.342C417.508 271.701 433.861 274.366 450.055 277.558L485.402 284.58C506.208 288.713 528.079 293.641 549.295 289.54C565.908 286.33 577.335 277.447 586.677 263.689Z"/>
		<path fill="#252223" d="M385.695 282.994C389.903 284.044 423.072 308.554 429.911 313.194Q456.262 331.008 482.926 348.349C490.688 353.346 498.924 358.342 507.343 362.171C510.729 363.711 518.063 365.994 520.618 367.53C519.837 369.028 507.795 373.776 505.668 374.689C491.935 379.568 478.128 380.673 463.679 381.393C453.792 373.971 445.027 364.294 436.291 355.568C416.126 335.428 392.632 312.483 376.776 288.935C379.901 287.147 382.779 285.097 385.695 282.994Z"/>
		<path fill="#252223" d="M380.374 301.692C390.226 308.822 434.955 401.822 442.7 417.614C447.858 428.131 453.319 438.444 458.166 449.117C464.769 463.658 471.004 478.224 476.007 493.401C471.078 489.42 466.613 484.66 462.21 480.115Q449.575 466.838 437.245 453.278C430.14 445.971 423.401 438.372 416.426 430.951C409.211 423.275 397.422 412.567 392.58 403.626C390.601 399.973 390.192 396.264 390 392.176C394.76 398.007 400.594 403.35 405.942 408.652C414.158 416.797 422.417 425.017 430.881 432.901C421.125 414.828 410.658 397.115 400.594 379.207C396.611 372.121 391.505 365.254 388.783 357.561C384.491 345.43 381.068 315.214 380.374 301.692Z"/>
		<path fill="#252223" d="M386.763 189.579C387.932 189.439 389.491 189.347 390.477 190.101C391.599 190.958 391.965 192.502 392.147 193.828C392.475 196.212 392.203 198.873 392.109 201.286C391.486 217.249 385.105 231.974 375.184 244.354C365.874 255.973 352.18 265.012 337.217 266.674C335.526 266.74 333.724 266.94 332.188 266.137C331.59 265.343 331.368 264.698 331.197 263.717C330.689 260.807 331.032 257.561 331.183 254.627C331.91 240.409 336.522 227.634 344.736 216.062C354.955 201.666 369.346 192.52 386.763 189.579Z"/>
		<path fill="#252223" d="M240.453 261.055C241.41 261.01 241.831 261.278 242.472 261.917C244.485 263.926 246.195 266.428 248.03 268.614C253.044 274.583 258.72 280.414 265.306 284.639C257.435 287.216 249.109 288.65 241.042 290.527Q225.878 294.104 210.895 298.377C200.217 295.57 190.093 291.813 180.11 287.096C168.437 281.395 155.21 276.156 142.253 274.48C154.611 270.302 168.547 269.348 181.45 267.768L240.453 261.055Z"/>
		<path fill="#252223" d="M271.829 290.207C275.681 291.599 279.148 294.168 282.759 296.086C285.891 297.749 289.263 299.036 292.539 300.386C288.639 304.763 284.16 308.576 280.265 312.942C272.517 321.629 265.079 330.29 256.902 338.595C253.742 341.804 250.665 345.172 247.082 347.917C233.127 348.416 218.619 345.717 205.188 342.165C195.409 339.527 186.641 335.76 177.721 330.982Q178.319 331.08 178.92 331.16C184.947 331.961 191.124 332.004 197.18 331.545C218.398 329.935 229.401 320.069 245.781 308.425C254.405 302.296 263.42 296.626 271.829 290.207Z"/>
		<path fill="#252223" d="M300.228 302.063C301.059 302.093 301.877 302.226 302.701 302.335C303.501 302.844 303.867 303.223 304.192 304.131C305.317 307.275 304.465 312.016 304.671 315.393C304.993 320.676 306.812 328.824 305.941 333.869C305.124 338.606 300.491 346.343 298.329 350.872L280.516 387.793C264.286 394.145 243.558 393.042 227.441 386.951C223.605 385.297 220.226 383.303 216.827 380.903C227.027 382.516 236.996 384.281 247.304 382.393C258.44 372.07 266.82 357.639 274.889 344.888C283.795 330.817 292.422 316.783 300.228 302.063Z"/>
		<path fill="#252223" d="M251.132 204.146C252.28 204.164 253.438 204.192 254.567 204.422C266.97 206.942 280.258 223.127 287.057 233.274C291.701 240.204 301.502 257.928 299.62 266.031C299.337 267.252 298.858 267.742 297.82 268.392C290.966 268.953 284.561 267.127 278.639 263.708C265.052 255.865 255.245 241.264 251.313 226.214C249.521 219.357 247.357 210.597 251.132 204.146Z"/>
		<path fill="#252223" d="M358.357 60.0827C359.253 59.9604 360.024 60.1013 360.899 60.2864C361.963 60.5115 362.914 60.7549 363.498 61.7436C364.067 62.7094 363.773 64.0148 363.465 65.0205C359.935 76.5699 340.859 95.6253 331.319 103.266C326.991 106.732 322.5 109.665 317.634 112.317C322.846 106.509 328.718 101.531 334.145 95.9679Q340.927 88.9041 346.985 81.2096Q353.042 73.5152 358.316 65.2641C353.29 66.2407 348.43 67.297 343.565 68.9232C312.02 79.4677 282.206 103.134 267.244 133.108C261.931 144.685 260.076 155.76 261.409 168.471C266.419 162.617 272.887 158.114 279.311 153.968C278.826 157.094 278.588 160.24 278.35 163.392C271.16 167.829 266.209 174.079 261.376 180.845C258.405 174.79 256.211 168.514 255.621 161.756C253.937 142.434 265.021 122.938 277.061 108.614C292.45 90.3051 312.597 76.3811 334.499 66.9887C342.059 63.7465 350.111 60.8098 358.357 60.0827Z"/>
		<path fill="#252223" d="M617.136 260.629C617.499 260.852 617.779 261.117 618.096 261.401C619.086 265.103 618.088 270.413 617.757 274.207C615.779 296.866 610.878 318.639 601.742 339.532Q600.863 341.506 599.944 343.462Q599.025 345.418 598.065 347.354Q597.106 349.291 596.107 351.207Q595.108 353.123 594.069 355.018Q593.031 356.914 591.954 358.787Q590.877 360.661 589.762 362.512Q588.646 364.363 587.493 366.19Q586.339 368.018 585.149 369.821Q583.958 371.625 582.73 373.403Q581.503 375.182 580.239 376.935Q578.975 378.688 577.675 380.414Q576.375 382.141 575.04 383.84Q573.705 385.54 572.336 387.211Q570.966 388.883 569.562 390.526Q568.158 392.169 566.721 393.783Q565.283 395.396 563.813 396.98Q562.342 398.564 560.84 400.117Q559.337 401.67 557.803 403.192Q556.269 404.714 554.703 406.204Q553.138 407.694 551.542 409.152Q549.947 410.609 548.321 412.034Q546.696 413.458 545.042 414.849Q543.387 416.239 541.705 417.595Q540.022 418.952 538.312 420.273Q536.602 421.594 534.865 422.88Q533.128 424.166 531.364 425.415Q529.601 426.665 527.813 427.878Q526.024 429.092 524.211 430.268Q522.398 431.444 520.561 432.583Q518.724 433.721 516.864 434.822Q515.004 435.922 513.122 436.984Q511.24 438.046 509.336 439.069C500.447 443.849 491.302 447.645 481.921 451.321C482.238 449.848 489.196 446.799 491.067 445.806C537.972 420.89 571.476 391.525 595.403 343.399C605.79 322.507 611.72 300.744 615.885 277.893C616.725 273.282 618.593 264.971 617.136 260.629Z"/>
		<path fill="#252223" d="M133.972 187.45C134.755 187.499 135.615 187.563 136.361 187.819C139.532 188.908 138.88 196.82 139.359 199.573C139.617 201.059 140.207 202.375 140.837 203.732C145.4 205.604 152.366 206.008 155.954 209.403C156.806 210.209 157.088 210.72 157.079 211.861C155.112 213.54 143.901 212.059 138.259 215.571C132.652 219.062 130.701 226.703 129.295 232.693C128.708 233.652 128.288 234.099 127.321 234.68C126.868 234.649 126.562 234.737 126.21 234.401C124.222 232.503 125.112 221.674 124.654 218.555C122.638 204.814 114.845 210.876 108.525 206.233C108.12 205.367 108.093 205.206 108.176 204.253C110.271 201.131 120.478 203.075 124.336 201.515C129.571 199.398 131.829 192.164 133.972 187.45ZM123.114 206.92C127.29 210.552 127.978 215.151 129.03 220.342C129.894 218.89 130.718 217.351 131.695 215.976C135.754 211.26 140.662 210.188 146.685 209.639C143.678 208.705 140.689 207.838 137.855 206.442C136.497 203.669 135.506 200.296 133.833 197.741C131.075 202.138 127.763 204.669 123.114 206.92Z"/>
		<path fill="#252223" d="M330.795 137.598C335.093 137.161 339.569 137.839 343.847 138.277C341.743 140.554 340.563 142.835 339.269 145.642C320.348 145.029 303.843 147.62 287.88 158.568C287.456 170.985 288.367 180.01 292.072 191.899Q293.309 195.597 294.486 199.315C288.053 191.819 284.793 182.728 283.62 172.996C282.873 166.802 282.328 153.65 286.107 148.814C286.659 148.789 287.209 148.738 287.76 148.712C290.574 148.576 302.47 142.955 306.756 141.622C314.621 139.176 322.61 138.228 330.795 137.598Z"/>
		<path fill="#252223" d="M120.345 275.485C121.81 279.169 122.123 287.586 122.917 291.963C124.154 298.785 126.111 305.599 128.212 312.199C138.444 344.34 156.354 373.07 178.889 397.996C184.564 404.273 191.082 409.742 196.725 416.019C189.61 413.908 166.884 390.002 161.708 383.775Q159.795 381.451 157.959 379.065Q156.123 376.68 154.367 374.235Q152.611 371.791 150.935 369.29Q149.26 366.789 147.668 364.234Q146.075 361.68 144.568 359.074Q143.06 356.469 141.639 353.816Q140.217 351.162 138.884 348.464Q137.55 345.765 136.306 343.024Q135.062 340.283 133.908 337.503Q132.754 334.723 131.693 331.906Q130.631 329.09 129.662 326.24Q128.693 323.39 127.818 320.51Q126.944 317.63 126.164 314.722Q125.384 311.815 124.7 308.884Q124.016 305.952 123.429 303Q122.841 300.048 122.351 297.078C121.164 290.22 119.71 282.447 120.345 275.485Z"/>
		<path fill="#252223" d="M202.336 448.48C203.383 448.589 203.854 448.695 204.652 449.397C205.536 451.478 204.416 453.673 203.741 455.686C207.149 454.603 213.195 452.299 216.752 453.608C217.578 453.912 217.609 454.023 217.931 454.781C217.831 455.128 217.746 455.434 217.537 455.735C215.226 459.066 208.238 460.241 204.58 461.225C206.883 463.459 209.436 466.116 210.904 469.001C211.588 470.345 211.88 471.28 211.405 472.707C210.689 473.003 210.525 473.105 209.747 472.859C206.675 471.887 203.671 467.115 202.298 464.369C201.089 467.914 199.624 471.377 198.233 474.853C197.315 476.997 195.608 481.226 193.237 482.003C192.401 482.277 192.006 482.199 191.258 481.796C191.088 481.47 190.934 481.181 190.865 480.816C190.161 477.11 195.332 466.103 197.345 462.897C192.91 463.311 183.482 465.932 179.673 465.071C178.95 464.908 178.892 464.817 178.538 464.22C178.667 463.87 178.774 463.582 179.017 463.292C182.972 458.592 192.255 457.888 197.918 457.429C197.951 456.979 197.994 456.543 198.057 456.096C198.539 452.674 199.538 450.564 202.336 448.48Z"/>
		<path fill="#252223" d="M110.24 309.619C112.002 311.694 114.609 322.283 115.843 325.754Q118.896 334.484 122.597 342.96Q126.299 351.436 130.627 359.61C139.085 375.46 151.416 390.106 163.993 402.824C168.862 407.747 174.12 412.318 178.848 417.374C172.94 415.45 152.753 395.649 148.048 390.551C130.543 371.587 118.288 349.139 112.568 323.959C111.519 319.339 110.048 314.373 110.24 309.619Z"/>
		<path fill="#252223" d="M573.59 143.425C574.711 143.41 575.401 143.445 576.415 143.944C576.719 144.396 576.921 144.544 576.941 145.111C577.025 147.496 573.458 150.79 571.938 152.393C574.548 154.565 577.526 157.734 579.021 160.819C579.562 161.935 579.678 162.537 579.303 163.688L578.438 163.97C574.643 163.302 571.109 159.18 568.394 156.63C566.71 159.365 564.653 161.989 562.791 164.613C562.038 165.69 561.162 166.884 560.15 167.734C559.395 168.367 558.964 168.54 558.014 168.484C557.484 167.866 557.448 167.288 557.442 166.503C557.402 161.658 560.853 156.774 564.054 153.431Q563.623 153.083 563.208 152.717C561.48 151.191 558.03 148.282 558.066 145.81C558.074 145.269 558.409 145.149 558.771 144.807C562.204 144.348 565.541 147.056 568.29 148.848C569.96 146.909 571.703 145.153 573.59 143.425Z"/>
		<path fill="#252223" d="M610.059 358.145L610.617 358.66C610.632 358.867 610.663 359.144 610.646 359.36C610.361 363.008 607.082 368.95 605.486 372.46C594.072 397.556 579.624 417.408 559.066 435.805C558.72 434.281 563.684 429.307 564.834 427.951Q575.868 414.725 585.676 400.565Q595.484 386.406 603.986 371.426C606.047 367.798 609.746 362.235 610.059 358.145Z"/>
		<path fill="#252223" d="M357.231 189.132C357.609 189.193 357.836 189.21 358.208 189.367C359.047 189.72 359.311 190.319 359.597 191.109C358.667 193.439 354.134 195.172 351.963 196.415C346.059 199.794 342.196 205.508 338.079 210.766C337.999 210.736 337.919 210.706 337.839 210.675C336.909 210.308 336.035 209.874 335.665 208.868C335.321 207.932 335.584 206.939 335.979 206.064C339.184 198.967 350.051 191.614 357.231 189.132Z"/>
		<path fill="#252223" d="M483.029 396.954C484.127 396.784 485.193 396.742 486.299 396.901C488.943 397.282 491.924 399.039 493.456 401.223C494.223 402.318 494.64 403.614 494.344 404.945C493.941 406.752 492.532 407.614 491.066 408.523C490.168 408.693 489.332 408.698 488.431 408.503C485.469 407.864 482.385 405.807 480.751 403.261C480.088 402.227 479.67 400.865 480.039 399.648C480.49 398.16 481.723 397.577 483.029 396.954Z"/>
		<path fill="#252223" d="M169.546 167.234C170.411 167.306 171.258 167.407 172.089 167.671C173.704 168.183 175.205 169.282 175.971 170.821Q176.088 171.055 176.181 171.3Q176.273 171.544 176.34 171.797Q176.407 172.05 176.447 172.309Q176.487 172.567 176.501 172.829Q176.514 173.09 176.5 173.351Q176.487 173.613 176.446 173.871Q176.406 174.13 176.339 174.382Q176.272 174.635 176.179 174.88C175.339 177.163 173.475 178.135 171.381 179.016C170.448 179.02 169.566 178.991 168.666 178.713C167.085 178.224 165.678 177.179 164.955 175.663C164.241 174.165 164.308 172.469 164.949 170.959C165.851 168.834 167.561 168.069 169.546 167.234Z"/>
		<path fill="#252223" d="M266.948 201.534C268.454 201.775 269.972 202.174 271.38 202.762C275.19 204.353 280.438 207.531 281.932 211.609C282.509 213.184 282.199 214.108 281.504 215.582C280.766 215.507 280.17 215.242 279.557 214.815C277.114 213.113 275.132 210.642 272.72 208.828C270.962 207.507 268.049 206.359 266.671 204.758C266.313 203.621 266.667 202.654 266.948 201.534Z"/>
	</g>
	<g>
		<path fill="#252223" d="M462.948 133.178C464.296 133.191 465.642 133.542 466.958 133.823C483.72 137.411 499.57 147.282 513.35 157.102C516.271 159.184 520.516 161.75 522.462 164.75C517.877 162.65 513.349 158.816 509.059 156.069C503.631 152.593 497.877 149.554 492.185 146.536Q483.629 142.045 474.702 138.345C470.948 136.76 466.315 135.402 462.948 133.178Z"/>
		<path fill="#252223" d="M225.952 418.983C227.11 419.166 228.065 419.554 229.123 420.04C233.912 422.24 238.425 425.045 243.161 427.364C249.784 430.606 257.294 433.366 263.445 437.416C263.125 437.418 262.814 437.401 262.496 437.368C249.71 436.044 234.112 429.089 225.952 418.983Z"/>
	</g>
</svg>
