<?xml version="1.0" encoding="utf-8" ?>
<svg xmlns="http://www.w3.org/2000/svg" xmlns:xlink="http://www.w3.org/1999/xlink" width="735" height="600">
	<g>
		<path fill="#242122" transform="scale(0.586124 0.585938)" d="M261.074 534.785C265.182 534.566 269.218 534.58 273.099 536.154C278.023 538.15 281.554 541.99 283.583 546.857C287.506 556.265 286.096 567.766 282.264 576.961C278.769 585.35 272.226 594.01 263.5 597.394C258.752 599.235 253.12 599.171 248.519 596.904C242.069 593.726 239.356 587.535 237.234 581.1C235.622 571.7 236.256 563.008 239.982 554.106C240.353 553.221 240.292 552.794 241.169 552.43C241.091 554.859 240.055 556.631 240.792 559.199C241.322 561.048 243.175 562.689 244.894 563.42C248.307 564.871 252.364 564.163 255.66 562.733C259.718 560.973 262.564 558.201 264.034 554.004C265.058 551.079 264.765 547.529 263.244 544.811C262.44 543.373 261.149 542.361 259.53 542.024C253.481 540.764 247.496 545.502 242.811 548.725L243.022 548.115L242.76 548.711L243.62 548.368L243.294 547.751C248.89 540.938 252.832 538.022 261.074 534.785Z"/>
		<path fill="#242122" transform="scale(0.586124 0.585938)" d="M232.592 595.08C232.815 595.216 233.062 595.319 233.261 595.488C234.401 596.456 234.547 597.458 234.684 598.823C233.649 601.815 230.868 603.964 228.107 605.317C222.904 607.865 219.103 608.134 213.654 606.219C213.411 606.05 213.156 605.898 212.926 605.713C211.793 604.804 210.965 604.069 210.857 602.64C211.705 602.102 212.215 602.105 213.181 602.101C221.722 602.064 226.344 601.365 232.592 595.08Z"/>
		<path fill="#242122" transform="scale(0.586124 0.585938)" d="M673.166 486.901C674.023 486.885 674.835 486.895 675.682 487.047C680.253 487.869 684.433 491.812 686.912 495.603C696.161 509.742 695.459 528.127 692.024 543.974C687.296 565.787 677.953 587.568 658.606 600.056C656.525 600.659 654.449 601.13 652.283 600.71C648.549 599.986 645.757 597.275 643.807 594.149C635.249 580.431 636.896 551.633 640.702 536.15C645.449 516.836 655.845 497.494 673.166 486.901ZM668.534 555.967C676.824 543.64 685.158 518.84 681.946 503.975C681.297 500.971 679.599 497.345 676.836 495.74C676.33 495.445 675.793 495.212 675.253 494.987C669.077 507.132 658.09 539.858 662.515 552.753C663.064 554.353 663.852 555.347 665.114 556.44C666.719 556.868 666.862 556.994 668.348 556.134C668.42 556.092 668.472 556.022 668.534 555.967Z"/>
		<path fill="#242122" transform="scale(0.586124 0.585938)" d="M348.361 471.884Q350.171 472.227 351.887 472.895Q353.604 473.564 355.169 474.535C358.779 476.742 361.683 479.78 362.705 483.977C358.53 483.058 353.431 480.324 350.359 477.341C348.433 475.471 348.396 474.414 348.361 471.884Z"/>
		<path fill="#242122" transform="scale(0.586124 0.585938)" d="M920.191 623.236C915.644 613.835 913.178 604.518 915.268 594.094C918.699 576.982 932.144 558.046 946.633 548.383C946.538 548.548 946.446 548.715 946.348 548.878C943.262 554.014 938.416 558.17 934.77 562.95C925.2 575.497 917.005 594.847 920.933 610.875C924.559 625.673 938.247 635.509 950.656 642.903C974.613 657.178 1008.11 669.259 1035.99 662.068C1050.86 658.233 1061.63 648.423 1069.17 635.274C1076.53 622.44 1084.01 594.579 1080.2 579.523C1079.58 577.069 1078.42 574.946 1076.09 573.771C1072.8 572.107 1055.86 570.977 1050.65 570.161C1059.69 568.464 1068.14 567.438 1077.34 567.469C1102.95 569.951 1127.99 578.977 1147.98 595.487C1162.79 607.718 1174.08 626.002 1175.72 645.45C1175.95 648.117 1176.2 653.231 1174.46 655.309C1174.46 654.698 1174.44 654.085 1174.44 653.474C1174.51 639.495 1165.37 624.062 1156.58 613.684C1140.1 594.213 1106.89 576.263 1080.95 574.39L1080.06 574.329C1081.34 575.722 1082.18 576.971 1082.84 578.772C1088.2 593.404 1083.59 617.696 1077.16 631.29C1071.17 643.969 1058.22 660.333 1044.59 665.237C1044.73 665.409 1044.88 665.575 1045.01 665.752C1049.63 671.896 1043.92 740.129 1042.6 752.199Q1041.48 761.887 1039.52 771.44C1038.21 777.885 1033.85 800.333 1028.84 803.641L1027.56 803.379C1020.25 794.84 1020.43 737.802 1019.97 723.212C1009 743.777 994.782 761.422 974.148 772.947C978.438 790.36 984.108 807.836 985.606 825.797C985.823 828.394 986.311 832.154 984.548 834.212C984.363 834.147 984.166 834.109 983.993 834.017C979.024 831.369 964.056 787.773 962.29 779.917C952.055 777.751 943.647 773.597 935.934 766.438C916.039 747.969 905.875 716.414 905.055 689.968C895.449 700.276 885.834 710.693 876.711 721.43C870.358 728.907 864.392 736.991 857.613 744.068C856.684 745.037 855.795 745.918 854.42 746.19C853.156 746.44 853.004 746.286 851.979 745.636C851.716 744.976 851.481 744.389 851.404 743.677C851.016 740.102 853.061 734.828 854.125 731.448C866.194 693.127 896.386 655.369 920.191 623.236ZM963.706 776.833L968.469 772.506C964.832 770.739 961.672 769.345 959.439 765.792L959.562 764.675C960.953 764.044 962.233 764.294 963.64 764.768C966.556 765.751 969.305 767.982 971.803 769.737C977.121 764.744 982.057 759.437 987.008 754.084C977.242 749.571 970.381 744.638 963.892 736.003C973.087 740.071 981.188 745.269 988.06 752.692C1001.97 736.504 1016.52 719.679 1023.36 699.056C1004.03 703.472 987.063 700.927 969.479 691.845L967.55 690.349C969.648 689.426 984.095 693.336 987.686 693.823Q1005.65 696.205 1023.77 695.969C1027.23 689.585 1030.21 679.435 1028 672.271Q1027.78 671.582 1027.55 670.899C1031.03 675.352 1030.57 681.96 1029.93 687.304C1028.63 698.227 1023.3 708.88 1023.39 719.773C1023.53 736.386 1033.11 769.535 1027.62 784.105C1037.62 770.876 1039.31 712.903 1040.45 693.878C1040.9 686.438 1042.43 677.719 1041.73 670.378C1041.62 669.266 1041.2 668.391 1040.71 667.406C1034.07 673.116 1020.98 673.011 1012.81 672.437C987.227 670.638 958.967 658.543 938.886 642.725C933.318 638.339 928.872 632.737 923.454 628.302C920.058 638.036 916.354 647.787 914.13 657.869C908.538 683.226 909.849 714.415 921.138 737.979C928.981 754.35 941.757 769.328 959.334 775.409Q961.509 776.155 963.706 776.833ZM910.913 646.758C902.762 657.52 853.541 728.74 854.28 739.04C854.319 739.577 854.351 739.461 854.767 739.821C862.178 732.176 866.916 722.603 874.015 714.667Q883.202 704.427 893.368 695.158C897.33 691.606 901.782 688.377 905.465 684.556C904.975 674.525 906.295 665.726 908.545 656.008C909.225 653.072 910.57 649.682 910.913 646.758Z"/>
		<path fill="#242122" transform="scale(0.586124 0.585938)" d="M972.542 716.462C977.582 717.314 1000.86 722.187 1003.25 724.974C1003.93 725.764 1003.62 726.936 1003.6 727.946C1002.45 728.272 1001.31 728.53 1000.11 728.636C989.727 729.554 980.182 722.617 972.542 716.462Z"/>
		<path fill="#242122" transform="scale(0.586124 0.585938)" d="M1020.8 578.23C1024.92 577.96 1029.48 578.573 1033.03 580.823C1035.06 582.108 1036.42 584 1036.86 586.374C1037.82 591.551 1035.06 597.624 1032.28 601.879C1024.75 613.38 1013.49 619.08 1000.37 621.779C997.224 621.572 993.874 620.936 991.074 619.44C987.477 617.519 984.841 613.887 983.803 609.972C982.702 605.821 983.718 601.882 985.888 598.274C992.675 586.994 1008.72 581.093 1020.8 578.23Z"/>
		<path fill="#242122" transform="scale(0.586124 0.585938)" d="M971.357 541.529C972.732 541.363 974.805 540.978 976.15 541.341C977.351 541.665 978.19 542.493 978.75 543.572C980.563 547.065 979.271 551.957 977.999 555.457C973.737 567.189 962.708 581.921 951.071 587.119C946.152 589.316 942.099 589.532 937.034 587.579C936.154 586.886 935.355 586.109 934.535 585.347C934.045 584.185 933.768 583.277 933.788 582C933.936 572.646 943.688 562.387 949.892 556.279C951.772 554.428 956.528 549.554 959.288 549.592C959.666 551.451 959.949 552.357 961.286 553.727C962.439 554.223 963.372 554.622 964.649 554.567C966.954 554.469 968.552 553.578 970.061 551.902C970.538 549.398 969.368 547.228 968.742 544.765C969.32 542.657 969.626 542.713 971.357 541.529Z"/>
		<path fill="#242122" transform="scale(0.586124 0.585938)" d="M751.376 539.995C781.402 504.76 836.303 470.742 876.604 446.801C893.231 436.924 909.904 426.944 927.181 418.233C938.508 412.523 950.423 407.782 962.058 402.717C970.336 399.113 985.868 390.818 994.333 390.458C995.172 390.422 995.815 390.601 996.573 390.935C997.37 392.662 997.354 393.681 996.679 395.481C994.831 400.411 991.079 404.609 988.881 409.436C959.941 472.985 907.034 549.849 840.206 577.561C815.079 587.98 763.348 603.239 737.26 594.945C739.199 586.289 743.91 576.627 745.233 568.452C746.382 566.721 747.58 564.733 749.305 563.527C761.138 555.254 786.965 546.579 801.203 539.922C819.046 531.579 835.728 520.335 852.019 509.37C870.261 497.091 887.784 485.08 904.573 470.807C908.283 478.308 911.195 485.12 917.355 490.994C944.191 463.975 965.31 431.281 985.159 398.938C944.628 415.443 906.425 438.094 869.079 460.726C848.707 473.071 828.116 485.237 808.366 498.563Q792.039 509.758 776.293 521.757C768.375 527.839 760.415 535.761 751.376 539.995ZM891.556 522.971C894.593 519.37 897.514 515.153 897.242 510.172C897.137 508.254 896.388 506.526 894.858 505.333C893.168 504.014 891.249 504.011 889.199 503.934C886.257 506.305 883.948 508.754 883.589 512.738C883.373 515.138 884.269 517.571 885.825 519.386C887.358 521.174 889.415 522.118 891.556 522.971Z"/>
		<path fill="#242122" transform="scale(0.586124 0.585938)" d="M653.269 447.743C663.354 415.948 675.441 386.272 695.621 359.409C701.433 351.672 709.486 345.238 714.857 337.419C718.793 331.688 720.177 321.864 726.516 318.228C727.922 317.422 729.522 317.287 731.044 317.846C734.227 319.015 736.849 323.224 738.046 326.217Q738.245 326.715 738.418 327.223Q738.591 327.731 738.738 328.246Q738.885 328.762 739.006 329.285Q739.127 329.807 739.221 330.336Q739.315 330.864 739.382 331.396Q739.449 331.928 739.489 332.463Q739.529 332.998 739.541 333.534Q739.554 334.07 739.539 334.607Q739.524 335.143 739.483 335.678Q739.441 336.212 739.372 336.744Q739.303 337.276 739.207 337.804Q739.111 338.332 738.988 338.854Q738.865 339.376 738.716 339.891Q738.567 340.406 738.392 340.913Q738.217 341.421 738.016 341.918Q737.816 342.415 737.59 342.902C735.645 347.19 731.635 352.386 727.164 354.111Q726.717 354.28 726.256 354.405Q725.795 354.529 725.324 354.609Q724.852 354.688 724.376 354.722Q723.899 354.755 723.422 354.742Q722.944 354.729 722.47 354.67Q721.996 354.611 721.53 354.506Q721.064 354.401 720.61 354.251Q720.156 354.102 719.719 353.909C717.686 353.011 715.777 351.584 713.978 350.289C699.122 356.814 674.097 410.37 668.039 425.981C665.024 433.751 662.78 441.832 660.47 449.833C687.779 456.106 712.347 471.431 727.333 495.589C739.942 515.913 744.667 540.313 739.125 563.702C734.152 584.692 721.252 601.802 705.996 616.483C714.68 634.112 704.796 673.226 698.618 691.355C690.34 715.648 675.502 747.55 655.007 763.937C656.235 747.464 668.751 732.73 676.067 718.391C682.175 706.419 687.593 694.203 691.6 681.363C694.447 672.24 696.661 662.647 697.802 653.155C699.177 641.725 697.851 629.43 703.1 618.892C679.307 635.293 652.779 645.357 623.701 646.078C599.814 646.672 575.853 641.039 558.227 624.002C541.191 607.535 533.738 582.802 533.22 559.587C533.166 532.609 543.412 509.435 560.395 488.972C564.073 484.541 571.47 473.748 577.568 473.187C575.565 483.416 563.355 492.151 557.24 500.452C553.08 506.097 549.657 512.592 546.903 519.027C544.626 524.352 537.664 545.676 540.237 550.963C540.684 551.882 540.826 551.693 541.721 551.962C545.288 548.676 545.51 534.763 547.238 529.431C550.426 519.595 555.637 507.424 561.785 499.107C563.476 496.82 565.913 493.998 568.946 493.724C570.522 493.581 571.894 494.199 573.062 495.225C580.827 502.048 585.606 524.684 586.4 534.715C587.757 551.853 583.67 573.88 572.081 587.222C569.41 590.297 565.784 593.096 561.555 593.257C558.627 593.368 556.016 592.108 553.936 590.11C545.023 581.549 544.552 563.09 544.229 551.386C542.696 552.314 541.021 553.263 540.458 555.058C537.37 564.911 543.423 586.218 548.035 594.991C556.645 611.365 573.086 622.169 590.44 627.486C618.537 636.094 653.212 630.724 678.97 617.136C700.03 606.026 719.696 586.941 726.74 563.681C732.302 545.313 729.589 525.025 720.567 508.202C707.672 484.157 683.773 469.565 658.329 461.937C657.581 465.52 656.937 469.664 655.616 473.08C654.749 475.325 653.234 478.554 650.933 479.55L649.958 478.781C647.175 469.202 650.766 457.152 653.269 447.743Z"/>
		<path fill="#FEFEFE" transform="scale(0.586124 0.585938)" d="M575.239 512.465C576.657 513.949 576.877 517.837 577.044 519.84C578.117 532.734 575.91 547.462 567.446 557.607C566.921 556.828 566.433 556.071 566.064 555.204C561.988 545.649 571.114 522.004 575.239 512.465Z"/>
		<path fill="#242122" transform="scale(0.586124 0.585938)" d="M933.693 445.012C934.318 445.287 934.923 445.698 935.376 446.214C936.312 447.28 936.447 448.912 936.141 450.234C934.533 457.176 925.603 464.309 919.963 468.039C919.666 467.943 919.342 467.907 919.072 467.751C917.773 466.998 917.62 466.226 917.34 464.902C919.102 457.553 928.481 450.129 933.693 445.012Z"/>
		<path fill="#242122" transform="scale(0.586124 0.585938)" d="M295.445 412.14C299.428 420.099 302.882 428.313 307.248 436.079C319.514 457.9 365.029 530.725 385.268 537.064C387.18 537.663 389.34 537.877 391.132 536.814C392.886 535.772 393.777 533.96 394.201 532.026C395.157 527.661 393.615 523.409 391.148 519.845C387.971 515.255 380.209 508.096 374.625 507.066C373.169 506.798 371.98 507.013 370.809 507.928C370.258 508.359 369.748 508.84 369.241 509.321L368.271 509.227C367.534 508.011 367.113 507.319 367.402 505.854C367.795 503.858 369.643 501.779 371.436 500.902C373.292 499.995 374.613 500.305 376.444 501.039C385.068 504.501 405.026 521.681 414.894 528.104Q424.616 534.433 434.641 540.269Q444.667 546.104 454.971 551.432Q465.275 556.761 475.832 561.568Q486.389 566.375 497.173 570.65C507.018 574.659 528.64 579.979 532.553 590.108C534.566 595.321 534.774 601.808 535.39 607.366C486.22 607.741 419.073 586.937 381.346 554.773C347.985 526.332 316.577 480.482 302.107 439.025C299.061 430.296 296.174 421.403 295.445 412.14Z"/>
		<path fill="#FEFEFE" transform="scale(0.586124 0.585938)" d="M411.11 540.618C413.833 541.393 416.251 542.305 418.015 544.648C419.068 546.046 419.539 547.64 419.241 549.38C418.794 552 417.048 553.047 414.948 554.401C412.15 553.279 409.061 551.69 407.36 549.097C406.65 548.013 406.302 546.695 406.604 545.415C407.172 543.007 409.186 541.888 411.11 540.618Z"/>
		<path fill="#242122" transform="scale(0.586124 0.585938)" d="M204.304 387.587C203.326 397.503 200.946 407.485 199.499 417.371C194.752 449.8 193.126 483.029 201.803 514.954C210.904 508.084 220.122 502.452 231.238 499.492C236.314 498.14 242.508 496.991 247.242 499.767C241.637 504.13 229.401 505.081 222.391 507.579C215.352 510.087 208.704 513.577 202.352 517.488Q204.884 527.442 207.095 537.473C203.279 531.949 200.569 526.669 198.289 520.356C189.861 530.236 185.323 539.481 181.439 551.83C180.021 556.34 178.844 561.005 176.559 565.165C176.428 565.403 176.305 565.645 176.174 565.882C176.096 566.025 176.012 566.165 175.932 566.307C182.535 564.634 188.636 563.764 194.875 567.407C200.501 570.691 203.981 576.698 205.378 582.926C206.986 590.092 205.84 597.5 201.872 603.71C198.891 608.378 194.404 612.115 188.922 613.372C181.972 614.967 176.24 612.449 170.334 609.045C175.507 624.636 182.726 637.374 197.926 645.049C219.252 655.819 248.843 654.388 271.164 646.739C279.355 643.932 288.422 637.865 296.56 636.21C297.861 636.914 297.883 636.852 298.399 638.227C297.155 642.44 290.621 646.608 286.889 648.609C263.305 661.25 231.556 665.348 206.002 657.272Q203.703 656.541 201.424 655.752C205.006 666.531 208.464 677.351 213.389 687.612C228.089 718.239 254.068 745.39 284.469 760.722C291.56 764.298 299.149 766.893 306.129 770.667L302.473 763.206C303.642 760.603 304.907 756.547 307.852 755.501C311.191 754.314 314.803 756.132 316.877 752.394C322.425 742.398 331.059 700.079 335.273 696.246C334.314 716.804 329.991 743.195 317.499 759.991C327.968 779.274 335.926 801.074 339.34 822.798C331.715 812.123 325.109 800.805 318.34 789.581C315.174 784.333 312.157 778.592 308.454 773.709C307.54 772.503 306.578 771.174 305.015 770.885C302.69 770.454 300.174 771.646 297.785 771.153C288.177 769.174 277.906 762.498 269.924 756.904C268.535 767.067 264.456 776.853 262.274 786.897C259.639 799.019 259.113 811.428 257.761 823.726C251.968 808.196 246.769 778.888 253.835 763.239C255.782 758.926 258.733 755.724 263.271 754.135Q264.485 753.716 265.718 753.354C251.253 744.895 238.559 734.65 227.446 722.086C224.134 718.343 215.53 704.161 212.815 702.515C208.457 693.25 202.851 684.201 199.889 674.366C197.858 667.624 198.574 657.524 194.843 651.755L194.156 651.674C191.434 656.074 191.99 669.134 191.63 674.884C190.103 699.302 186.078 742.531 191.436 764.749C191.801 766.265 192.305 767.5 193.12 768.831L194.186 769.415C197.338 768.196 199.398 764.291 200.725 761.328C206.009 749.524 207.76 734.981 209.761 722.302C210.577 717.136 210.858 710.73 213.091 706C212.451 721.627 211.022 760.209 198.743 770.776C197.578 771.779 196.293 772.492 194.717 772.333C193.15 772.175 191.812 771.112 190.898 769.867C179.906 754.902 183.625 699.398 185.715 681.348C186.917 670.958 189.218 660.81 190.658 650.471C187.716 646.316 183.269 643.312 179.628 639.786C170.02 630.481 164.999 615.434 163.324 602.454C161.675 589.683 163.479 579.429 171.374 569.141C173.006 548.18 181.921 530.933 197.638 517.021C194.621 509.538 192.925 501.319 191.524 493.391C185.035 456.655 192.235 422.262 204.304 387.587ZM175.477 592.162C179.999 588.585 184.161 584.037 185.03 578.074C185.309 576.159 184.975 574.086 183.65 572.605C181.991 570.752 179.599 570.282 177.242 570.059C172.859 572.32 170.688 575.31 169.195 579.955C168.255 582.88 167.49 587.006 169.083 589.833C169.85 591.192 171.264 591.856 172.729 592.185C173.717 592.407 174.482 592.374 175.477 592.162Z"/>
		<path fill="#242122" transform="scale(0.586124 0.585938)" d="M248.265 499.816C256.696 452.505 265.534 430.325 294.781 391.724C303.292 380.491 312.66 368.455 324.366 360.418C327.29 358.411 331.279 356.215 334.929 357.053C336.616 357.44 337.91 358.428 338.795 359.906C340.745 363.162 340.507 367.558 339.427 371.06C338.214 374.993 335.549 379.581 331.865 381.566C330.196 382.466 328.318 382.591 326.549 381.898C322.106 380.159 319.916 375.731 318.106 371.655C312.202 376.168 307.368 382.26 302.672 387.979C282.148 412.972 268.393 440.827 259.067 471.714C256.406 480.525 253.756 489.532 252.498 498.673L252.387 499.515C269.723 495.787 289.936 501.721 304.572 511.188Q306.115 512.19 307.607 513.267Q309.098 514.344 310.534 515.495Q311.97 516.645 313.347 517.865Q314.724 519.086 316.039 520.373Q317.354 521.661 318.602 523.012Q319.851 524.363 321.031 525.775Q322.211 527.187 323.32 528.655Q324.428 530.124 325.462 531.646Q326.496 533.168 327.453 534.74Q328.41 536.312 329.287 537.929Q330.165 539.547 330.961 541.206Q331.756 542.865 332.469 544.561Q333.181 546.258 333.808 547.988Q334.435 549.718 334.975 551.477Q335.516 553.236 335.967 555.02Q336.419 556.804 336.782 558.608C340.871 578.649 336.661 592.651 327.384 610.115C351.395 632.598 368.082 680.223 377.28 711.078C380.471 721.782 384.241 733.892 384.686 745.105C384.808 748.184 384.721 751.346 382.885 753.935C381.535 754.613 380.909 754.909 379.415 754.397C371.328 751.629 350.501 718.95 345.329 710.747C342.323 705.981 339.444 699.947 335.862 695.693C325.681 674.608 311.252 655.011 308.13 631.169C306.762 632.385 305.377 633.753 303.886 634.808C302.26 635.96 301.66 635.99 299.709 635.721C300.311 630.251 317.601 613.639 322.083 606.112C325.731 599.988 328.209 592.132 329.466 585.144C332.703 567.141 327.844 548.193 317.428 533.28C300.142 508.529 279.534 505.77 252.417 500.958C250.766 506.861 251.308 513.035 249.953 518.965C249.662 520.242 249.516 521.663 248.39 522.391C245.853 516.151 247.504 506.469 248.265 499.816ZM310.078 630.859C317.996 640.81 321.342 653.82 326.967 665.081C334.078 679.316 342.454 692.991 350.479 706.723C357.72 719.113 364.741 732.356 373.629 743.667C376.196 746.956 378.771 750.178 381.584 753.261C377.192 710.232 356.043 665.073 335.186 627.497C332.631 622.895 330.317 615.546 326.912 611.761C321.271 618.093 315.527 624.361 310.078 630.859Z"/>
		<path fill="#242122" transform="scale(0.586124 0.585938)" d="M728.127 603.429C736.366 603.307 744.865 604.707 753.062 605.536Q771.865 607.409 790.715 608.722C821.583 610.783 851.335 608.167 881.979 604.762C874.161 623.36 853.615 641.427 836.67 652.098C815.662 665.328 790.669 663.515 767.452 658.305C755.33 655.584 719.518 645.853 713.61 635.225C711.54 631.502 714.632 623.651 715.849 619.918C723.746 615.302 733.353 618.21 741.73 619.873C758.089 623.121 775.437 627.16 792.116 627.674C801.453 627.962 816.406 625.474 823.918 626.656C825.35 626.882 825.61 626.901 826.436 628.048C824.621 631.426 809.079 636.993 803.543 643.151C802.022 644.843 800.703 646.334 800.82 648.697C802.204 650.021 803.323 650.429 805.29 650.485C822.345 650.973 854.795 623.132 867.246 612.108C830.581 618.517 791.441 615.384 754.553 611.685C749.994 611.228 727.821 609.28 725.502 606.445C725.932 604.754 726.774 604.477 728.127 603.429Z"/>
		<path fill="#242122" transform="scale(0.586124 0.585938)" d="M536.151 614.364C536.473 617.176 537.591 619.869 538.01 622.715C538.569 626.511 538.821 641.024 540.114 643.16C539.999 643.322 539.896 643.493 539.769 643.645C536.757 647.248 530.36 650.699 526.3 653.225C507.006 665.228 486.798 676.313 463.719 678.182C440.972 680.023 415.209 673.816 398.462 657.534C393.275 652.492 389.593 646.036 384.007 641.394C383.793 641.216 383.575 641.042 383.359 640.867C387.888 641.742 418.138 651.332 419.935 653.42C420.954 654.604 421.006 657.456 422.236 658.991C423.535 660.611 425.674 661.245 427.696 661.249C429.159 661.253 429.753 660.907 430.739 659.897C431.349 656.407 429.881 654.326 428.069 651.529C452.859 647.352 477.777 637.642 500.65 627.488C512.625 623.095 523.514 616.927 536.151 614.364ZM445.345 665.943C447.02 663.087 448.321 661.208 447.505 657.785C446.552 656.397 445.657 655.555 443.936 655.236C442.812 655.028 441.616 655.02 440.475 654.987C439.13 656.679 437.717 658.188 437.981 660.486C438.132 661.8 438.864 662.946 439.924 663.723C441.53 664.903 443.433 665.491 445.345 665.943Z"/>
		<path fill="#FEFEFE" transform="scale(0.586124 0.585938)" d="M467.083 651.483C468.791 651.963 470.675 652.718 471.734 654.227C472.618 655.486 472.917 656.9 472.484 658.393C471.618 661.385 469.437 662.581 466.842 663.956C464.677 663.246 462.633 662.369 461.341 660.396C460.67 659.371 460.384 658.144 460.745 656.938C461.636 653.953 464.523 652.723 467.083 651.483Z"/>
		<path fill="#242122" transform="scale(0.586124 0.585938)" d="M1054.26 432.945C1054.38 432.844 1054.5 432.746 1054.61 432.643C1059.67 428.085 1061.84 420.846 1070.08 421.031Q1070.44 421.037 1070.8 421.08Q1071.16 421.123 1071.52 421.203Q1071.87 421.283 1072.21 421.399Q1072.56 421.514 1072.89 421.665Q1073.22 421.815 1073.53 421.999Q1073.84 422.182 1074.14 422.397Q1074.43 422.611 1074.7 422.855Q1074.97 423.098 1075.21 423.368C1077.13 425.475 1077.86 428.507 1077.68 431.304C1077.48 434.369 1076.16 437.452 1073.75 439.417C1071.75 441.047 1068.85 441.944 1066.28 441.559C1061.9 440.904 1060.5 435.401 1056.21 434.849C1055.82 437.104 1035.5 459.159 1032.11 463.418C1018.11 481.035 1009.02 501.365 996.913 520.172C1009.49 519.633 1020.37 517.844 1032.54 522.651C1034.08 523.26 1036.35 523.886 1037.57 524.996C1037.83 524.786 1038.09 524.579 1038.35 524.366C1043.11 520.4 1046.99 514.496 1051.51 510.081Q1054.24 507.446 1057.09 504.939Q1059.94 502.431 1062.9 500.056Q1065.85 497.681 1068.92 495.443Q1071.98 493.205 1075.15 491.109Q1078.31 489.013 1081.56 487.064Q1084.82 485.114 1088.16 483.315Q1091.5 481.516 1094.92 479.871Q1098.34 478.226 1101.83 476.738C1109.31 473.614 1117.12 471.172 1124.91 468.957C1127.67 468.17 1131.68 467.832 1134.14 466.637C1134.42 466.458 1134.71 466.285 1134.99 466.1C1139.34 463.228 1140.58 456.515 1147.15 457.628C1149.21 457.977 1150.97 459.311 1152.15 461.003Q1152.5 461.5 1152.79 462.03Q1153.08 462.56 1153.32 463.118Q1153.55 463.676 1153.73 464.255Q1153.9 464.834 1154.02 465.429Q1154.13 466.024 1154.18 466.627Q1154.23 467.23 1154.22 467.836Q1154.21 468.441 1154.13 469.042Q1154.06 469.642 1153.92 470.232C1153.39 472.459 1152.06 474.469 1150 475.536C1147.84 476.652 1145.12 476.569 1142.87 475.776C1138.84 474.355 1136.49 470.17 1132.31 468.959C1124.1 474.908 1110.38 478.214 1100.86 482.901C1079.02 493.66 1058.43 509.776 1040.16 525.746C1042.14 526.741 1044.57 527.659 1046.28 529.032C1046.46 528.996 1046.64 528.963 1046.82 528.924C1055.11 527.132 1062.98 522.621 1071.16 520.16C1100.17 511.431 1133.6 507.14 1163.56 513.313C1169.27 514.489 1177.81 514.962 1182.46 518.602C1182.61 518.717 1182.71 518.878 1182.83 519.016C1188.52 518.311 1194.64 517.14 1199.67 520.812C1201.1 521.855 1202.19 523.3 1202.4 525.096C1202.71 527.835 1201.21 530.584 1199.43 532.55C1197.25 534.948 1194.14 536.7 1190.85 536.777C1188.37 536.834 1186.11 535.874 1184.41 534.074C1180.42 529.833 1183.29 524.725 1180.79 520.858C1147.93 514.246 1113.2 516.138 1080.89 524.613C1071.62 527.046 1062.72 530.86 1053.47 533.228C1063.2 538.034 1072.51 548.627 1076.07 558.902C1076.74 560.849 1077.26 562.576 1076.84 564.648C1075.78 564.897 1073.65 560.69 1072.87 559.58C1066.64 550.705 1055.53 538.637 1045.33 534.661C1042.36 537.312 1022.62 544.497 1018.49 544.526L1018.13 543.734C1021.27 538.618 1028.37 538.194 1032.22 534.191C1032.42 533.974 1032.62 533.747 1032.83 533.525C1027.47 529.251 1000.01 526.575 993.29 527.113C994.261 535.61 992.683 541.946 989.834 549.946C988.541 542.418 988.8 535.05 989.028 527.455C978.404 529.716 969.571 536.14 958.911 538.174C965.203 525.718 987.941 525.306 992.19 521.425C992.606 521.046 993.045 520.048 993.361 519.54C1002.52 498.95 1019.29 472.839 1033.77 455.609C1038.28 450.244 1052.16 436.755 1054.26 432.945Z"/>
		<path fill="#242122" transform="scale(0.586124 0.585938)" d="M714.624 653.215C721.644 660.942 737.035 699.647 743.573 712.007C756.918 737.23 775.753 758.719 790.938 782.725C787.155 781.243 783.548 779.626 779.941 777.754C755.947 763.951 719.355 728.455 700.044 706.923C702.733 696.585 706.276 686.422 709.158 676.132C711.272 668.579 712.903 660.865 714.624 653.215Z"/>
		<path fill="#242122" transform="scale(0.586124 0.585938)" d="M545.795 657.45C549.571 667.265 557.191 691.733 558.907 701.758C554.794 707.139 551.59 716.308 547.557 722.503C531.021 747.906 506.835 775.16 478.081 786.534C494.15 762.911 507.828 737.381 519.811 711.451C527.951 693.835 534.284 673.041 545.795 657.45Z"/>
		<path fill="#242122" transform="scale(0.586124 0.585938)" d="M644.055 747.709C647.87 753.039 650.701 759.011 654.399 764.429C654.067 767.812 657.369 773.152 658.737 776.368C666.658 795.001 676.834 820.195 665.702 839.342L664.482 841.468C665.077 842.739 665.501 843.393 666.834 843.987C669.384 845.123 674.195 843.881 676.587 842.749C677.755 842.196 678.881 841.426 679.96 840.724C693.506 841.226 714.3 841.071 727.012 843.072C661.251 848.89 583.981 854.023 519.07 843.033C546.826 836.269 575.099 836.527 603.48 836.556C615.558 836.568 627.814 836.219 639.866 836.902C648.07 837.367 656.193 839.679 664.302 839.935C662.563 814.889 650.945 791.814 640.295 769.445L640.46 769.146C639.837 765.782 643.416 752.766 644.055 747.709Z"/>
		<path fill="#242122" transform="scale(0.586124 0.585938)" d="M306.185 416.162C319.628 421.784 332.331 430.415 344.933 437.779C390.463 464.382 433.811 494.197 477.384 523.847C494.27 535.337 512.831 545.29 528.987 557.679C528.447 558.029 527.786 558.259 527.197 558.52C518.205 557.873 509.54 552.569 501.789 548.253C490.348 541.882 479.516 534.391 468.593 527.186L419.59 494.835C381.243 469.589 341.244 445.959 306.185 416.162Z"/>
		<path fill="#242122" transform="scale(0.586124 0.585938)" d="M375.965 278.804C377.123 279.318 378.254 279.805 379.15 280.733C381.303 282.965 381.905 288.437 381.845 291.372C381.561 305.264 376.249 315.085 366.427 324.613C378.358 331.329 383.743 337.019 391.393 348.205C393.305 335.066 397.088 325.738 405.65 315.542C400.887 314.122 396.794 312.763 392.653 309.989C389.522 307.892 384.328 303.765 383.812 299.819C383.641 298.509 383.989 297.555 384.769 296.513C387.456 297.411 390.041 300.785 392.414 302.488C401.506 309.016 413.43 309.295 424.162 309.52C421.01 312.278 417.537 314.741 414.212 317.289C402.178 328.805 398.377 344.18 399.204 360.379C399.463 365.447 400.439 371.634 399.192 376.54L398.413 376.683C391.102 372.675 387.734 358.008 383.629 350.967C380.366 345.37 375.782 340.015 370.616 336.086C361.581 329.216 344.145 332.161 340.103 327.887C342.7 324.634 357.226 325.201 366.445 315.69C376.306 305.517 376.101 292.021 375.965 278.804Z"/>
		<path fill="#242122" transform="scale(0.586124 0.585938)" d="M990.823 847.74C979.983 846.449 967.693 848.379 956.686 848.628C938.695 849.034 853.018 850.01 842.237 841.05L842.32 840.067C850.517 834.214 957.753 836.256 973.214 838.294C978.74 844.302 984.166 844.292 990.823 847.74Z"/>
		<path fill="#242122" transform="scale(0.586124 0.585938)" d="M546.466 617.785C551.669 631.936 554.952 646.629 558.937 661.146C561.409 670.153 564.444 679.006 567.432 687.853C571.344 689 581.66 690.738 584.626 692.89L584.617 693.741C581.503 695.885 578.07 695.493 574.507 694.824Q572.116 694.356 569.747 693.788C584.846 724.725 607.499 756.869 639.129 772.313L638.548 773.011C636.221 773.972 634.087 773.247 631.805 772.463C603.03 762.575 575.515 725.434 562.359 698.971C551.071 674.342 544.938 644.904 546.466 617.785Z"/>
		<path fill="#242122" transform="scale(0.586124 0.585938)" d="M277.637 834.304C298.97 833.166 320.715 834.938 342.051 835.768C371.5 836.915 400.983 837.526 430.315 840.526Q424.203 841.362 418.074 842.057C410.195 842.631 402.274 842.335 394.393 842.845C385.206 843.44 376.152 845.495 366.948 846.131C345.602 847.607 295.135 847.05 275.958 841.171C273.508 840.42 270.848 839.747 269.6 837.382L270.359 836.256C272.638 834.983 275.097 834.726 277.637 834.304Z"/>
		<path fill="#242122" transform="scale(0.586124 0.585938)" d="M579.033 473.784L579.059 473.321C579.544 462.748 578.513 452.204 579.315 441.55C581.878 407.543 594.501 366.025 620.247 342.501L620.796 342.004C616.343 352.443 609.169 361.321 604.563 371.654C593.117 397.332 586.899 427.301 585.67 455.324C585.42 461.033 584.996 467.98 586.598 473.463C587.101 478.048 591.402 484.625 589.949 489.001C589.442 490.526 588.715 491.228 587.29 491.867C586.833 491.736 586.603 491.705 586.209 491.486C581.939 489.122 580.133 478.304 579.033 473.784Z"/>
		<path fill="#242122" transform="scale(0.586124 0.585938)" d="M589.102 746.906C594.95 748.449 599.62 754.255 603.667 758.459C591.114 781.12 586.036 803.377 591.347 828.976C591.526 830.037 591.616 831.12 591.738 832.189L590.987 832.286C586.956 828.307 584.373 815.438 583.096 809.532C578.803 789.674 577.77 764.512 589.102 746.906Z"/>
		<path fill="#242122" transform="scale(0.586124 0.585938)" d="M916.248 741.893C916.845 742.299 917.356 742.647 917.808 743.223C920.454 746.592 922.03 751.678 922.047 755.895C922.087 765.675 918.053 776.538 916.028 786.152C913.553 797.901 911.702 809.77 909.608 821.59L909.141 821.725C907.881 820.808 907.649 819.96 907.145 818.469C899.869 796.922 906.213 761.602 916.248 741.893Z"/>
		<path fill="#242122" transform="scale(0.586124 0.585938)" d="M633.145 322.087Q634.058 322.154 634.967 322.265C638.015 322.649 640.21 323.953 642.059 326.435C645.499 331.056 645.498 337.831 644.491 343.276C643.27 349.886 640.588 355.761 634.934 359.63C631.135 358.938 628.411 357.538 626.042 354.379C622.653 349.86 622.166 343.339 623.142 337.926C624.338 331.288 627.569 325.934 633.145 322.087Z"/>
		<path fill="#242122" transform="scale(0.586124 0.585938)" d="M374.576 630.053C387.239 630.481 399.944 633.283 412.664 633.975C442.013 635.572 469.952 629.478 498.403 623.177C493.248 626.705 485.73 628.526 479.804 630.406C451.433 639.408 422.034 643.52 392.535 638.009C388.213 637.201 383.408 635.63 379.087 635.281C377.407 633.72 376.02 631.83 374.576 630.053Z"/>
		<path fill="#242122" transform="scale(0.586124 0.585938)" d="M622.402 449.094C631.307 446.693 642.268 446.364 651.443 447.509C648.829 449.462 648.946 455.434 648.235 458.664C640.444 457.57 633.421 457.926 625.636 458.867C622.462 465.685 619.419 481.543 615.442 486.011L614.339 486.156C612.373 484.072 612.119 479.183 612.193 476.387C612.383 469.192 615.543 461.936 618.447 455.469C619.604 453.269 621.064 451.188 622.402 449.094Z"/>
		<path fill="#242122" transform="scale(0.586124 0.585938)" d="M222.065 360.834C222.637 360.857 223.185 360.928 223.748 361.032C226.144 361.473 228.293 362.33 229.647 364.478C231.386 367.237 231.059 370.675 230.24 373.681C228.536 379.935 224.744 384.5 219.185 387.731C217.65 387.714 216 387.57 214.624 386.829C212.467 385.668 210.981 383.732 210.281 381.398C208.956 376.982 210.282 371.63 212.538 367.738C214.945 363.589 217.498 362.006 222.065 360.834Z"/>
		<path fill="#242122" transform="scale(0.586124 0.585938)" d="M647.128 239.461C665.403 239.574 687.808 247.066 702.829 257.349L702.198 257.334C684.687 256.812 659.478 252.639 647.128 239.461Z"/>
		<path fill="#242122" transform="scale(0.586124 0.585938)" d="M494.732 399.847C495.218 400.156 495.169 400.104 495.689 400.559C500.573 404.834 500.288 414.508 500.754 420.541C504.658 419.708 509.334 418.528 513.225 419.787L513.419 420.546C510.576 423.749 505.784 424.691 501.839 425.92C502.909 432.286 504.228 439.277 503.665 445.739C503.547 447.085 503.638 447.95 502.59 448.836C501.077 447.665 500.906 446.257 500.302 444.499C498.599 438.322 497.52 431.956 496.277 425.673C490.019 428.216 483.899 430.645 477.39 432.485C483.271 428.04 489.084 424.41 495.803 421.321C494.16 413.806 492.915 407.418 494.732 399.847Z"/>
		<path fill="#242122" transform="scale(0.586124 0.585938)" d="M568.421 169.896C579.324 174.505 603.008 199.947 610.057 210.123C608.355 209.693 606.635 209.319 604.975 208.742C589.007 203.197 575.628 184.478 568.421 169.896Z"/>
		<path fill="#242122" transform="scale(0.586124 0.585938)" d="M638.92 148.567C638.973 148.708 639.031 148.848 639.081 148.99C643.031 160.355 634.229 196.767 628.876 208.29C624.185 191.165 632.025 164.603 638.92 148.567Z"/>
		<path fill="#242122" transform="scale(0.586124 0.585938)" d="M614.343 249.087C614.873 249.335 615.203 249.468 615.706 249.817C616.958 250.686 617.439 251.951 617.569 253.424C618.404 262.853 600.751 281.695 594.576 288.702L593.798 289.342L593.08 289.132C594.545 276.702 605.107 257.34 614.343 249.087Z"/>
		<path fill="#242122" transform="scale(0.586124 0.585938)" d="M693.263 187.967L694.282 188.34C692.104 192.729 668.227 210.356 663.262 213.334C658.96 215.914 654.541 217.881 649.818 219.545L648.942 218.763C648.891 218.089 648.915 217.526 649.206 216.898C654.153 206.239 682.24 192.734 693.263 187.967Z"/>
		<path fill="#242122" transform="scale(0.586124 0.585938)" d="M587.345 473.482C587.708 471.58 588.101 469.711 588.775 467.889C591.277 461.121 596.295 458.409 602.438 455.521C605.361 454.146 612.838 450.628 615.935 451.75L616.054 453.017C615.047 455.642 614.002 458.077 612.631 460.542C605.216 464.079 599.735 467.973 593.817 473.64C592.652 474.756 590.466 477.552 588.952 477.377Q588.175 475.419 587.345 473.482Z"/>
		<path fill="#242122" transform="scale(0.586124 0.585938)" d="M588.131 231.093C593.182 230.716 601.804 229.641 606.179 232.444L605.849 233.44C599.992 237.977 590.109 237.609 583.035 238.143C576.03 238.039 569.099 237.306 562.134 236.612C570.557 233.498 579.275 232.204 588.131 231.093Z"/>
		<path fill="#242122" transform="scale(0.586124 0.585938)" d="M632.892 251.337C633.411 251.533 633.561 251.571 634.017 251.801C643.127 256.381 649.16 278.061 652.24 287.428C642.172 279.043 634.964 264.096 632.892 251.337Z"/>
		<path fill="#242122" transform="scale(0.586124 0.585938)" d="M254.424 247.071C253.024 243.239 250.14 236.246 251.815 232.305L252.85 232.35C256.095 235.834 257.321 240.141 258.884 244.524L259.448 249.065C260.297 254.055 261.95 260.515 260.433 265.426L259.666 265.398C256.759 261.459 255.812 256.29 254.614 251.62L243.84 256.272C247.148 252.871 250.652 249.945 254.424 247.071Z"/>
	</g>
	<g>
		<path fill="#FEFEFE" transform="scale(0.586124 0.585938)" d="M247.242 499.767L248.265 499.816C247.504 506.469 245.853 516.151 248.39 522.391C249.516 521.663 249.662 520.242 249.953 518.965C251.308 513.035 250.766 506.861 252.417 500.958C279.534 505.77 300.142 508.529 317.428 533.28C327.844 548.193 332.703 567.141 329.466 585.144C328.209 592.132 325.731 599.988 322.083 606.112C317.601 613.639 300.311 630.251 299.709 635.721C301.66 635.99 302.26 635.96 303.886 634.808C305.377 633.753 306.762 632.385 308.13 631.169C311.252 655.011 325.681 674.608 335.862 695.693L335.273 696.246C331.059 700.079 322.425 742.398 316.877 752.394C314.803 756.132 311.191 754.314 307.852 755.501C304.907 756.547 303.642 760.603 302.473 763.206L306.129 770.667C299.149 766.893 291.56 764.298 284.469 760.722C254.068 745.39 228.089 718.239 213.389 687.612C208.464 677.351 205.006 666.531 201.424 655.752Q203.703 656.541 206.002 657.272C231.556 665.348 263.305 661.25 286.889 648.609C290.621 646.608 297.155 642.44 298.399 638.227C297.883 636.852 297.861 636.914 296.56 636.21C288.422 637.865 279.355 643.932 271.164 646.739C248.843 654.388 219.252 655.819 197.926 645.049C182.726 637.374 175.507 624.636 170.334 609.045C176.24 612.449 181.972 614.967 188.922 613.372C194.404 612.115 198.891 608.378 201.872 603.71C205.84 597.5 206.986 590.092 205.378 582.926C203.981 576.698 200.501 570.691 194.875 567.407C188.636 563.764 182.535 564.634 175.932 566.307C176.012 566.165 176.096 566.025 176.174 565.882C176.305 565.645 176.428 565.403 176.559 565.165C178.844 561.005 180.021 556.34 181.439 551.83C185.323 539.481 189.861 530.236 198.289 520.356C200.569 526.669 203.279 531.949 207.095 537.473Q204.884 527.442 202.352 517.488C208.704 513.577 215.352 510.087 222.391 507.579C229.401 505.081 241.637 504.13 247.242 499.767ZM261.074 534.785C252.832 538.022 248.89 540.938 243.294 547.751L243.62 548.368L242.76 548.711L243.022 548.115L242.811 548.725C247.496 545.502 253.481 540.764 259.53 542.024C261.149 542.361 262.44 543.373 263.244 544.811C264.765 547.529 265.058 551.079 264.034 554.004C262.564 558.201 259.718 560.973 255.66 562.733C252.364 564.163 248.307 564.871 244.894 563.42C243.175 562.689 241.322 561.048 240.792 559.199C240.055 556.631 241.091 554.859 241.169 552.43C240.292 552.794 240.353 553.221 239.982 554.106C236.256 563.008 235.622 571.7 237.234 581.1C239.356 587.535 242.069 593.726 248.519 596.904C253.12 599.171 258.752 599.235 263.5 597.394C272.226 594.01 278.769 585.35 282.264 576.961C286.096 567.766 287.506 556.265 283.583 546.857C281.554 541.99 278.023 538.15 273.099 536.154C269.218 534.58 265.182 534.566 261.074 534.785ZM213.654 606.219C219.103 608.134 222.904 607.865 228.107 605.317C230.868 603.964 233.649 601.815 234.684 598.823C234.547 597.458 234.401 596.456 233.261 595.488C233.062 595.319 232.815 595.216 232.592 595.08C226.344 601.365 221.722 602.064 213.181 602.101C212.215 602.105 211.705 602.102 210.857 602.64C210.965 604.069 211.793 604.804 212.926 605.713C213.156 605.898 213.411 606.05 213.654 606.219Z"/>
		<path fill="#242122" transform="scale(0.586124 0.585938)" d="M326.649 695.55C328.188 695.857 328.64 695.779 329.748 696.946C329.666 698.365 329.002 699.098 328.071 700.096C319.509 709.281 308.202 711.138 296.294 711.713C295.15 711.659 294 711.512 292.859 711.403C293.615 711.038 293.383 711.077 294.076 710.96C306.583 708.861 318.03 705.261 326.649 695.55Z"/>
		<path fill="#242122" transform="scale(0.586124 0.585938)" d="M313.08 659.97C314.607 660.475 314.959 661.004 315.871 662.246L315.584 663.536C308.444 672.275 295.015 676.466 284.392 678.923L282.098 678.988L281.818 678.489C285.05 676.457 288.978 676.167 292.509 674.782C300.561 671.625 306.764 665.665 313.08 659.97Z"/>
		<path fill="#242122" transform="scale(0.586124 0.585938)" d="M312.71 674.208C314.644 674.365 315 674.157 316.433 675.561L316.263 676.694C308.607 683.728 296.612 686.129 286.785 688.54C285.404 688.754 284.314 688.766 282.921 688.646C285.276 686.258 294.563 683.958 298.373 682.284C303.399 680.074 308.052 677.092 312.71 674.208Z"/>
		<path fill="#FEFEFE" transform="scale(0.586124 0.585938)" d="M648.235 458.664C648.946 455.434 648.829 449.462 651.443 447.509L653.269 447.743C650.766 457.152 647.175 469.202 649.958 478.781L650.933 479.55C653.234 478.554 654.749 475.325 655.616 473.08C656.937 469.664 657.581 465.52 658.329 461.937C683.773 469.565 707.672 484.157 720.567 508.202C729.589 525.025 732.302 545.313 726.74 563.681C719.696 586.941 700.03 606.026 678.97 617.136C653.212 630.724 618.537 636.094 590.44 627.486C573.086 622.169 556.645 611.365 548.035 594.991C543.423 586.218 537.37 564.911 540.458 555.058C541.021 553.263 542.696 552.314 544.229 551.386C544.552 563.09 545.023 581.549 553.936 590.11C556.016 592.108 558.627 593.368 561.555 593.257C565.784 593.096 569.41 590.297 572.081 587.222C583.67 573.88 587.757 551.853 586.4 534.715C585.606 524.684 580.827 502.048 573.062 495.225C571.894 494.199 570.522 493.581 568.946 493.724C565.913 493.998 563.476 496.82 561.785 499.107C555.637 507.424 550.426 519.595 547.238 529.431C545.51 534.763 545.288 548.676 541.721 551.962C540.826 551.693 540.684 551.882 540.237 550.963C537.664 545.676 544.626 524.352 546.903 519.027C549.657 512.592 553.08 506.097 557.24 500.452C563.355 492.151 575.565 483.416 577.568 473.187L579.033 473.784C580.133 478.304 581.939 489.122 586.209 491.486C586.603 491.705 586.833 491.736 587.29 491.867C588.715 491.228 589.442 490.526 589.949 489.001C591.402 484.625 587.101 478.048 586.598 473.463L587.345 473.482Q588.175 475.419 588.952 477.377C590.466 477.552 592.652 474.756 593.817 473.64C599.735 467.973 605.216 464.079 612.631 460.542C614.002 458.077 615.047 455.642 616.054 453.017C616.804 453.853 617.526 454.825 618.447 455.469C615.543 461.936 612.383 469.192 612.193 476.387C612.119 479.183 612.373 484.072 614.339 486.156L615.442 486.011C619.419 481.543 622.462 465.685 625.636 458.867C633.421 457.926 640.444 457.57 648.235 458.664ZM658.606 600.056C677.953 587.568 687.296 565.787 692.024 543.974C695.459 528.127 696.161 509.742 686.912 495.603C684.433 491.812 680.253 487.869 675.682 487.047C674.835 486.895 674.023 486.885 673.166 486.901C655.845 497.494 645.449 516.836 640.702 536.15C636.896 551.633 635.249 580.431 643.807 594.149C645.757 597.275 648.549 599.986 652.283 600.71C654.449 601.13 656.525 600.659 658.606 600.056Z"/>
		<path fill="#FEFEFE" transform="scale(0.586124 0.585938)" d="M675.253 494.987C675.793 495.212 676.33 495.445 676.836 495.74C679.599 497.345 681.297 500.971 681.946 503.975C685.158 518.84 676.824 543.64 668.534 555.967C668.472 556.022 668.42 556.092 668.348 556.134C666.862 556.994 666.719 556.868 665.114 556.44C663.852 555.347 663.064 554.353 662.515 552.753C658.09 539.858 669.077 507.132 675.253 494.987Z"/>
		<path fill="#242122" transform="scale(0.586124 0.585938)" d="M621.082 563.152C622.889 563.524 623.716 563.523 625.125 564.758C625.057 565.49 625.089 565.45 624.849 566.291C623.167 572.184 615.414 583.92 609.742 586.454C608.159 587.161 606.577 587.31 604.943 586.685C601.377 585.319 599.873 580.912 598.395 577.709C597.125 574.924 595.343 571.727 595.963 568.61L596.939 568.299C600.954 570.803 603.995 575.791 606.786 579.525C612.607 574.856 616.675 569.096 621.082 563.152Z"/>
		<path fill="#242122" transform="scale(0.586124 0.585938)" d="M628.561 494.453C628.848 494.541 629.142 494.609 629.423 494.715C630.981 495.307 631.415 495.884 632.162 497.322C632.182 501.854 628.975 505.629 626.577 509.272C625.624 510.005 625.683 510.203 624.419 510.215C624.399 509.987 624.377 509.76 624.36 509.532L624.294 508.539C623.9 503.289 625.716 498.741 628.561 494.453Z"/>
		<path fill="#242122" transform="scale(0.586124 0.585938)" d="M596.932 498.028C598.005 498.324 599.186 498.716 599.994 499.523C602.747 502.276 601.656 508.418 601.453 511.86C599.923 511.351 598.597 510.821 597.645 509.443C595.377 506.161 596.355 501.689 596.932 498.028Z"/>
		<path fill="#FEFEFE" transform="scale(0.586124 0.585938)" d="M295.445 412.14C298.749 411.446 303.29 414.597 306.185 416.162C341.244 445.959 381.243 469.589 419.59 494.835L468.593 527.186C479.516 534.391 490.348 541.882 501.789 548.253C509.54 552.569 518.205 557.873 527.197 558.52C527.786 558.259 528.447 558.029 528.987 557.679C530.396 558.309 531.833 558.91 533.22 559.587C533.738 582.802 541.191 607.535 558.227 624.002C575.853 641.039 599.814 646.672 623.701 646.078C652.779 645.357 679.307 635.293 703.1 618.892C697.851 629.43 699.177 641.725 697.802 653.155C696.661 662.647 694.447 672.24 691.6 681.363C687.593 694.203 682.175 706.419 676.067 718.391C668.751 732.73 656.235 747.464 655.007 763.937L654.399 764.429C650.701 759.011 647.87 753.039 644.055 747.709C643.416 752.766 639.837 765.782 640.46 769.146L640.295 769.445C639.782 770.436 639.354 771.205 639.129 772.313C607.499 756.869 584.846 724.725 569.747 693.788Q572.116 694.356 574.507 694.824C578.07 695.493 581.503 695.885 584.617 693.741L584.626 692.89C581.66 690.738 571.344 689 567.432 687.853C564.444 679.006 561.409 670.153 558.937 661.146C554.952 646.629 551.669 631.936 546.466 617.785C544.938 644.904 551.071 674.342 562.359 698.971L558.907 701.758C557.191 691.733 549.571 667.265 545.795 657.45C544.116 652.846 543.562 647.921 541.519 643.424L540.114 643.16C538.821 641.024 538.569 626.511 538.01 622.715C537.591 619.869 536.473 617.176 536.151 614.364C536.43 612.019 535.811 609.67 535.39 607.366C534.774 601.808 534.566 595.321 532.553 590.108C528.64 579.979 507.018 574.659 497.173 570.65Q486.389 566.375 475.832 561.568Q465.275 556.761 454.971 551.433Q444.667 546.104 434.641 540.269Q424.616 534.433 414.894 528.104C405.026 521.681 385.068 504.501 376.444 501.039C374.613 500.305 373.292 499.995 371.436 500.902C369.643 501.779 367.795 503.858 367.402 505.854C367.113 507.319 367.534 508.011 368.271 509.227L369.241 509.321C369.748 508.84 370.258 508.359 370.809 507.928C371.98 507.013 373.169 506.798 374.625 507.066C380.209 508.096 387.971 515.255 391.148 519.845C393.615 523.409 395.157 527.661 394.201 532.026C393.777 533.96 392.886 535.772 391.132 536.814C389.34 537.877 387.18 537.663 385.268 537.064C365.029 530.725 319.514 457.9 307.248 436.079C302.882 428.313 299.428 420.099 295.445 412.14ZM362.705 483.977C361.683 479.78 358.779 476.742 355.169 474.535Q353.604 473.564 351.887 472.895Q350.171 472.227 348.361 471.884C348.396 474.414 348.433 475.471 350.359 477.341C353.431 480.324 358.53 483.058 362.705 483.977Z"/>
		<path fill="#242122" transform="scale(0.586124 0.585938)" d="M686.248 641.801C686.811 642.36 687.025 642.964 687.362 643.673C686.933 645.805 685.644 647.124 684.009 648.474C669.312 660.607 644.229 669.674 625.297 667.663C624.261 667.363 623.844 666.965 623.023 666.293L623.201 665.514C626.426 663.454 641.26 661.858 647.201 660C660.786 655.751 673.541 648.148 686.248 641.801Z"/>
		<path fill="#242122" transform="scale(0.586124 0.585938)" d="M682.006 664.499L682.542 665.182C682.398 666.881 682.028 667.948 680.898 669.261C672.364 679.19 656.672 683.134 644.234 684.372L643.373 682.879C644.128 681.568 645.064 681.247 646.462 680.646C651.509 678.476 656.936 677.037 662.07 675.047C669.163 672.297 675.591 668.534 682.006 664.499Z"/>
		<path fill="#242122" transform="scale(0.586124 0.585938)" d="M677.058 689.57L677.241 690.645C676.632 693.066 675.172 694.736 673.317 696.366C664.509 704.107 650.976 708.225 639.395 707.565L638.99 706.578C640.797 704.516 652.131 701.654 655.528 700.272C662.969 697.244 669.994 693.375 677.058 689.57Z"/>
		<path fill="#242122" transform="scale(0.586124 0.585938)" d="M667.57 716.48L668.159 716.709L668.271 717.805C667.522 719.029 666.729 720.203 665.756 721.262C658.706 728.932 648.258 732.896 638.071 733.288C637.605 732.932 637.111 732.308 636.705 731.876C637.402 730.294 638.692 730.366 640.29 729.818C650.094 726.457 658.685 721.733 667.57 716.48Z"/>
		<path fill="#242122" transform="scale(0.586124 0.585938)" d="M556.342 643.99C563.54 645.928 572.017 651.18 577.782 655.838C575.995 655.924 574.217 655.945 572.459 655.558C565.591 654.045 560.062 649.874 556.342 643.99Z"/>
		<path fill="#242122" transform="scale(0.586124 0.585938)" d="M564.244 669.399C565.907 669.285 567.493 669.358 569.14 669.599C573.397 670.221 578.062 671.256 580.739 674.897C579.927 675.067 579.137 675.239 578.306 675.286C572.462 675.614 568.488 672.951 564.244 669.399Z"/>
		<path fill="#FEFEFE" transform="scale(0.586124 0.585938)" d="M923.454 628.302C928.872 632.737 933.318 638.339 938.886 642.725C958.967 658.543 987.227 670.638 1012.81 672.437C1020.98 673.011 1034.07 673.116 1040.71 667.406C1041.2 668.391 1041.62 669.266 1041.73 670.378C1042.43 677.719 1040.9 686.438 1040.45 693.878C1039.31 712.903 1037.62 770.876 1027.62 784.105C1033.11 769.535 1023.53 736.386 1023.39 719.773C1023.3 708.88 1028.63 698.227 1029.93 687.304C1030.57 681.96 1031.03 675.352 1027.55 670.899Q1027.78 671.582 1028 672.271C1030.21 679.435 1027.23 689.585 1023.77 695.969Q1005.65 696.205 987.686 693.823C984.095 693.336 969.648 689.426 967.55 690.349L969.479 691.845C987.063 700.927 1004.03 703.472 1023.36 699.056C1016.52 719.679 1001.97 736.504 988.06 752.692C981.188 745.269 973.087 740.071 963.892 736.003C970.381 744.638 977.242 749.571 987.008 754.084C982.057 759.437 977.121 764.744 971.803 769.737C969.305 767.982 966.556 765.751 963.64 764.768C962.233 764.294 960.953 764.044 959.562 764.675L959.439 765.792C961.672 769.345 964.832 770.739 968.469 772.506L963.706 776.833Q961.509 776.155 959.334 775.409C941.757 769.328 928.981 754.35 921.138 737.979C909.849 714.415 908.538 683.226 914.13 657.869C916.354 647.787 920.058 638.036 923.454 628.302ZM1003.6 727.946C1003.62 726.936 1003.93 725.764 1003.25 724.974C1000.86 722.187 977.582 717.314 972.542 716.462C980.182 722.617 989.727 729.554 1000.11 728.636C1001.31 728.53 1002.45 728.272 1003.6 727.946Z"/>
		<path fill="#FEFEFE" transform="scale(0.586124 0.585938)" d="M993.29 527.113C1000.01 526.575 1027.47 529.251 1032.83 533.525C1032.62 533.747 1032.42 533.974 1032.22 534.191C1028.37 538.194 1021.27 538.618 1018.13 543.734L1018.49 544.526C1022.62 544.497 1042.36 537.312 1045.33 534.661C1055.53 538.637 1066.64 550.705 1072.87 559.58C1073.65 560.69 1075.78 564.897 1076.84 564.648C1077.59 565.981 1077.61 565.965 1077.34 567.469C1068.14 567.438 1059.69 568.464 1050.65 570.161C1055.86 570.977 1072.8 572.107 1076.09 573.771C1078.42 574.946 1079.58 577.069 1080.2 579.523C1084.01 594.579 1076.53 622.44 1069.17 635.274C1061.63 648.423 1050.86 658.233 1035.99 662.068C1008.11 669.259 974.613 657.178 950.656 642.903C938.247 635.509 924.559 625.673 920.933 610.875C917.005 594.847 925.2 575.497 934.77 562.95C938.416 558.17 943.262 554.014 946.348 548.878C946.446 548.715 946.538 548.548 946.633 548.383C950.36 545.499 956.338 542.02 958.911 538.174C969.571 536.14 978.404 529.716 989.028 527.455C988.8 535.05 988.541 542.418 989.834 549.946C992.683 541.946 994.261 535.61 993.29 527.113ZM1000.37 621.779C1013.49 619.08 1024.75 613.38 1032.28 601.879C1035.06 597.624 1037.82 591.551 1036.86 586.374C1036.42 584 1035.06 582.108 1033.03 580.823C1029.48 578.573 1024.92 577.96 1020.8 578.23C1008.72 581.093 992.675 586.994 985.888 598.274C983.718 601.882 982.702 605.821 983.803 609.972C984.841 613.887 987.477 617.519 991.074 619.44C993.874 620.936 997.224 621.572 1000.37 621.779ZM937.034 587.579C942.099 589.532 946.152 589.316 951.071 587.119C962.708 581.921 973.737 567.189 977.999 555.457C979.271 551.957 980.563 547.065 978.75 543.572C978.19 542.493 977.351 541.665 976.15 541.341C974.805 540.978 972.732 541.363 971.357 541.529C969.626 542.713 969.32 542.657 968.742 544.765C969.368 547.228 970.538 549.398 970.061 551.902C968.552 553.578 966.954 554.469 964.649 554.567C963.372 554.622 962.439 554.223 961.286 553.727C959.949 552.357 959.666 551.451 959.288 549.592C956.528 549.554 951.772 554.428 949.892 556.279C943.688 562.387 933.936 572.646 933.788 582C933.768 583.277 934.045 584.185 934.535 585.347C935.355 586.109 936.154 586.886 937.034 587.579Z"/>
		<path fill="#242122" transform="scale(0.586124 0.585938)" d="M949.627 599.932C949.736 599.971 970.008 613.277 970.71 613.879C971.366 614.44 971.757 615.094 972.196 615.822C967.665 616.433 962.699 615.874 958.692 613.571C953.403 610.532 951.077 605.578 949.627 599.932Z"/>
		<path fill="#242122" transform="scale(0.586124 0.585938)" d="M1013.32 567.195C1019.7 567.19 1024.52 567.845 1030.03 571.286C1031.42 572.155 1032.68 573.152 1033.06 574.813C1032.03 576.26 1031.7 576.04 1030.02 576.338C1024.7 572.166 1019.93 572.495 1014.04 570.249C1012.76 569.761 1012.48 569.819 1011.91 568.587L1013.32 567.195Z"/>
		<path fill="#FEFEFE" transform="scale(0.586124 0.585938)" d="M889.199 503.934C891.249 504.011 893.168 504.014 894.858 505.333C896.388 506.526 897.137 508.254 897.242 510.172C897.514 515.153 894.593 519.37 891.556 522.971C889.415 522.118 887.358 521.174 885.825 519.386C884.269 517.571 883.373 515.138 883.589 512.738C883.948 508.754 886.257 506.305 889.199 503.934Z"/>
		<path fill="#FEFEFE" transform="scale(0.586124 0.585938)" d="M751.376 539.995C760.415 535.761 768.375 527.839 776.293 521.757Q792.039 509.758 808.366 498.563C828.116 485.237 848.707 473.071 869.079 460.726C906.425 438.094 944.628 415.443 985.159 398.938C965.31 431.281 944.191 463.975 917.355 490.994C911.195 485.12 908.283 478.308 904.573 470.807C887.784 485.08 870.261 497.091 852.019 509.37C835.728 520.335 819.046 531.579 801.203 539.922C786.965 546.579 761.138 555.254 749.305 563.527C747.58 564.733 746.382 566.721 745.233 568.452C744.94 567.417 744.702 566.361 744.658 565.283C744.282 556.042 745.148 547.189 751.376 539.995ZM919.963 468.039C925.603 464.309 934.533 457.176 936.141 450.234C936.447 448.912 936.312 447.28 935.376 446.214C934.923 445.698 934.318 445.287 933.693 445.012C928.481 450.129 919.102 457.553 917.34 464.902C917.62 466.226 917.773 466.998 919.072 467.751C919.342 467.907 919.666 467.943 919.963 468.039Z"/>
		<path fill="#FEFEFE" transform="scale(0.586124 0.585938)" d="M177.242 570.059C179.599 570.282 181.991 570.752 183.65 572.605C184.975 574.086 185.309 576.159 185.03 578.074C184.161 584.037 179.999 588.585 175.477 592.162C174.482 592.374 173.717 592.407 172.729 592.185C171.264 591.856 169.85 591.192 169.083 589.833C167.49 587.006 168.255 582.88 169.195 579.955C170.688 575.31 172.859 572.32 177.242 570.059Z"/>
		<path fill="#FEFEFE" transform="scale(0.586124 0.585938)" d="M326.912 611.761C330.317 615.546 332.631 622.895 335.186 627.497C356.043 665.073 377.192 710.232 381.584 753.261C378.771 750.178 376.196 746.956 373.629 743.667C364.741 732.356 357.72 719.113 350.479 706.723C342.454 692.991 334.078 679.316 326.967 665.081C321.342 653.82 317.996 640.81 310.078 630.859C315.527 624.361 321.271 618.093 326.912 611.761Z"/>
		<path fill="#FEFEFE" transform="scale(0.586124 0.585938)" d="M440.475 654.987C441.616 655.02 442.812 655.028 443.936 655.236C445.657 655.555 446.552 656.397 447.505 657.785C448.321 661.208 447.02 663.087 445.345 665.943C443.433 665.491 441.53 664.903 439.924 663.723C438.864 662.946 438.132 661.8 437.981 660.486C437.717 658.188 439.13 656.679 440.475 654.987Z"/>
		<path fill="#FEFEFE" transform="scale(0.586124 0.585938)" d="M213.091 706C210.858 710.73 210.577 717.136 209.761 722.302C207.76 734.981 206.009 749.524 200.725 761.328C199.398 764.291 197.338 768.196 194.186 769.415L193.12 768.831C192.305 767.5 191.801 766.265 191.436 764.749C186.078 742.531 190.103 699.302 191.63 674.884C191.99 669.134 191.434 656.074 194.156 651.674L194.843 651.755C198.574 657.524 197.858 667.624 199.889 674.366C202.851 684.201 208.457 693.25 212.815 702.515L213.091 706Z"/>
		<path fill="#FEFEFE" transform="scale(0.586124 0.585938)" d="M498.403 623.177C499.486 624.533 500.024 625.878 500.65 627.488C477.777 637.642 452.859 647.352 428.069 651.529C429.881 654.326 431.349 656.407 430.739 659.897C429.753 660.907 429.159 661.253 427.696 661.249C425.674 661.245 423.535 660.611 422.236 658.991C421.006 657.456 420.954 654.604 419.935 653.42C418.138 651.332 387.888 641.742 383.359 640.867C381.582 639.226 380.398 637.29 379.087 635.281C383.408 635.63 388.213 637.201 392.535 638.009C422.034 643.52 451.433 639.408 479.804 630.406C485.73 628.526 493.248 626.705 498.403 623.177Z"/>
		<path fill="#242122" transform="scale(0.586124 0.585938)" d="M628.599 220.596C629.661 220.614 630.881 220.828 631.793 221.39C633.881 222.675 634.933 224.97 635.281 227.321C635.768 230.618 634.668 234.358 632.522 236.907C630.229 239.63 627.319 239.752 624.042 239.993C623.255 239.777 622.525 239.545 621.792 239.181C619.119 237.854 617.803 235.514 616.942 232.732C616.114 230.053 616.033 227.055 617.521 224.586C619.961 220.538 624.047 221.91 627.98 220.781C628.187 220.722 628.393 220.658 628.599 220.596ZM627.672 236.934C630.049 235.632 631.961 234.093 632.644 231.336C633.119 229.417 632.531 227.662 631.413 226.074C629.64 223.556 626.952 222.89 624.114 222.228C621.641 223.595 619.387 224.994 618.688 227.929C618.28 229.641 618.619 231.272 619.554 232.749Q619.798 233.128 620.08 233.481Q620.362 233.833 620.679 234.154Q620.995 234.475 621.343 234.762Q621.691 235.049 622.067 235.299Q622.443 235.549 622.842 235.759Q623.241 235.968 623.66 236.136Q624.079 236.304 624.513 236.427Q624.947 236.551 625.391 236.629C626.146 236.768 626.909 236.853 627.672 236.934Z"/>
		<path fill="#242122" transform="scale(0.586124 0.585938)" d="M446.843 159.514C450.963 162.021 453.349 175.723 454.564 180.245C456.637 179.617 459.014 178.733 461.183 178.598C462.519 178.514 463.356 178.617 464.334 179.518L463.681 180.858C461.408 182.931 458.155 183.611 455.279 184.508Q457.023 193.728 458.492 202.995C456.879 200.49 455.467 198.14 454.329 195.373C453.061 192.337 451.955 189.219 450.796 186.139C445.528 188.98 440.378 191.801 434.648 193.605C438.228 188.002 443.764 185.043 449.544 182.154C447.487 174.603 445.412 167.39 446.843 159.514Z"/>
		<path fill="#242122" transform="scale(0.586124 0.585938)" d="M901.377 304.624C901.525 304.705 901.682 304.773 901.822 304.868C906.713 308.209 908.062 318.727 909.182 324.192Q912.168 323.472 915.214 323.074C917.315 322.793 918.999 322.623 920.725 323.942L920.585 325.199C918.552 327.161 914.654 327.921 912.017 328.92C911.156 330.729 912.506 334.1 912.636 336.182C912.725 337.606 912.65 338.363 911.69 339.408C910.251 338.771 909.658 337.53 908.727 336.282L905.489 330.244C899.77 331.334 894.077 332.411 888.261 332.809C893.503 329.478 898.298 327.532 904.296 325.931C902.032 318.796 900.372 312.135 901.377 304.624Z"/>
		<path fill="#555254" transform="scale(0.586124 0.585938)" d="M138.185 407.79C143.943 411.987 145.954 418.905 148.204 425.337L159.698 422.673C156.13 424.772 152.522 426.674 148.801 428.489C149.972 432.251 150.975 435.887 151.6 439.781L151.337 440.425L150.539 440.603C147.771 437.652 145.774 433.759 143.664 430.316C142.228 430.929 140.728 431.662 139.196 431.98C138.076 432.212 137.828 432.381 136.854 431.712C138.28 429.798 140.701 429.004 142.815 428.018C140.23 421.725 137.665 414.71 138.185 407.79Z"/>
		<path fill="#242122" transform="scale(0.586124 0.585938)" d="M781.941 166.314C785.401 169.379 785.865 177.682 786.651 182.128C789.256 181.582 792.33 180.711 794.851 181.889L794.882 182.805C793.004 184.696 790.672 185.375 788.229 186.288C789.272 189.77 791.024 196.878 789.298 200.111L788.902 199.708L789.732 199.623L789.775 198.849L788.332 198.748L786.788 194.301C785.968 192.018 785.198 189.716 784.407 187.423C780.328 188.988 775.507 191.36 771.072 190.675L771.036 189.842C774.357 186.806 778.937 185.367 783.1 183.892C781.626 177.982 781.056 172.34 781.941 166.314Z"/>
		<path fill="#242122" transform="scale(0.586124 0.585938)" d="M998.433 840.343C1011.31 840.162 1034.35 839.358 1046.59 842.213C1044.84 842.946 1040.36 842.514 1038.32 842.547C1023.43 843.916 1008.52 845.658 993.602 846.584C995.395 844.642 996.888 842.482 998.433 840.343Z"/>
		<path fill="#242122" transform="scale(0.586124 0.585938)" d="M783.911 390.392C784.142 390.559 784.38 390.718 784.604 390.894C788.368 393.85 788.455 404.221 788.897 408.754C791.316 408.588 793.446 408.283 795.758 409.192L795.776 409.976C793.692 411.509 791.291 411.891 788.819 412.476C789.383 416.426 788.621 420.132 787.834 423.988C786.786 420.992 786.029 417.896 785.207 414.832L784.855 414.321C780.856 413.737 773.796 417.952 770.091 419.647C774.611 415.359 779.051 412.384 784.678 409.695C783.532 403.077 782.736 397.047 783.911 390.392Z"/>
		<path fill="#FEFEFE" transform="scale(0.586124 0.585938)" d="M973.214 838.294C975.009 837.67 976.683 837.02 978.407 836.225C980.175 835.411 981.619 834.897 983.527 835.585C986.892 836.799 990.73 842.092 991.649 845.581C991.798 846.15 991.739 846.359 991.683 846.878L990.823 847.74C984.166 844.292 978.74 844.302 973.214 838.294Z"/>
		<path fill="#555254" transform="scale(0.586124 0.585938)" d="M258.884 244.524C261.593 243.334 264.081 242.196 267.041 241.798L268.137 242.262C267.139 245.404 262.142 247.548 259.448 249.065L258.884 244.524Z"/>
	</g>
</svg>
